<svg xmlns="http://www.w3.org/2000/svg" viewBox="0 0 2745 1830" id="confident-business-man-stands-in-boardroom"><path fill="#c1b9b2" d="M2209.59,1009.12h-19.9a4.58,4.58,0,0,1,0-9.15H2205V86.6H542.41V1000h19.37a4.58,4.58,0,1,1,0,9.15H537.84a4.58,4.58,0,0,1-4.58-4.58V82a4.57,4.57,0,0,1,4.58-4.57H2209.59a4.57,4.57,0,0,1,4.57,4.57v922.51A4.58,4.58,0,0,1,2209.59,1009.12Z"></path><path fill="#c1b9b2" d="M2014.71 1009.12H735.1a4.58 4.58 0 010-9.15H2014.71a4.58 4.58 0 110 9.15zM2241.38 123h-31.79a4.58 4.58 0 110-9.15h31.79a13.61 13.61 0 100-27.22H503.62a13.61 13.61 0 100 27.22h34.22a4.58 4.58 0 010 9.15H503.62a22.76 22.76 0 110-45.51H2241.38a22.76 22.76 0 110 45.51zM2536 1804.83a4.6 4.6 0 01-3.1-1.2l-712.6-652.85a4.58 4.58 0 116.19-6.75l712.6 652.85a4.58 4.58 0 01-3.09 7.95zM1982.61 1284.21h-.07a4.58 4.58 0 01-4.51-4.63c.21-15.66 1-31.45 2.42-46.95a4.57 4.57 0 119.11.82c-1.37 15.27-2.17 30.83-2.38 46.25A4.56 4.56 0 011982.61 1284.21zM2098.86 1309.88h-.25a4.57 4.57 0 01-4.32-4.81c.7-13.19.52-23.47.34-33.41-.19-11.56-.38-22.48.92-36 .92-9.67 9.56-35.72 30.75-98.93l6-18c15.34-45.66 20-59.44 24.6-81.31 3.23-15.21 5.73-30.73 7.43-46.14a25.61 25.61 0 00-17.51-27l-54.65-17.78a36.36 36.36 0 00-29.61 3 37.09 37.09 0 00-17.78 24.07c-1.4 6.28-2.53 12.68-3.35 19a212.45 212.45 0 00-1.53 36.38 46.68 46.68 0 01-3.82 20.71 598.61 598.61 0 00-44.33 163.06l-.17 1.41a4.58 4.58 0 11-9.08-1.16l.17-1.37a607.56 607.56 0 0145-165.56 37.71 37.71 0 003.09-16.68 219.68 219.68 0 011.59-38c.85-6.61 2-13.29 3.49-19.84a46.05 46.05 0 0159.15-33.8l54.65 17.79a34.79 34.79 0 0123.77 36.75c-1.73 15.7-4.28 31.52-7.56 47-4.75 22.39-9.42 36.28-24.89 82.32l-6 18c-18.38 54.8-29.46 87.87-30.32 96.89-1.25 13-1.07 23.72-.87 35 .17 10.1.35 20.54-.37 34A4.57 4.57 0 012098.86 1309.88zM2094.32 1353a5.34 5.34 0 01-.69 0 4.59 4.59 0 01-3.84-5.21c.84-5.55 1.61-11.24 2.27-16.91a4.58 4.58 0 019.09 1.06c-.68 5.78-1.45 11.57-2.31 17.22A4.58 4.58 0 012094.32 1353z"></path><path fill="#c1b9b2" d="M2073.52 1381.15a4.58 4.58 0 01-.82-9.08l1.56-.28a4.58 4.58 0 111.65 9l-1.56.28A4.76 4.76 0 012073.52 1381.15zM2068.6 1303.65l-4.58-.06.06-4c.19-11.48.74-23.1 1.64-34.55a4.57 4.57 0 119.12.72c-.88 11.26-1.43 22.69-1.61 34l-.06 3.88zM2076.09 1222.65a5 5 0 01-.76-.06 4.58 4.58 0 01-3.76-5.26c1.8-10.77 3.93-21.6 6.35-32.19a556.65 556.65 0 0137.11-109 30.26 30.26 0 002.79-13.82 153.32 153.32 0 0122.31-86.43 4.57 4.57 0 117.81 4.76 144.28 144.28 0 00-21 81.28 39.41 39.41 0 01-3.63 18 548.23 548.23 0 00-36.5 107.19c-2.37 10.43-4.48 21.08-6.24 31.66A4.58 4.58 0 012076.09 1222.65zM2083.55 1352.05a4.53 4.53 0 01-1.8-.37 65.78 65.78 0 00-41.42-3.49 4.57 4.57 0 01-2.15-8.89 74.79 74.79 0 0147.17 4 4.58 4.58 0 01-1.8 8.78zM1989.61 1187.47l-.55 0c-.32 0-32.74-3.86-53-5.59a630.24 630.24 0 00-66.26-2 4.58 4.58 0 11-.19-9.15 637.76 637.76 0 0167.23 2.08c20.4 1.74 53 5.57 53.3 5.61a4.58 4.58 0 01-.53 9.12zM1988.84 1204.88a4.71 4.71 0 01-.74-.06 535.71 535.71 0 00-113.81-6.42 4.58 4.58 0 01-.46-9.14 545.75 545.75 0 01115.75 6.53 4.58 4.58 0 01-.74 9.09zM2054.14 1241.24a13.38 13.38 0 01-1.67-.11c-22.84-3-46.08-5.07-69.07-6.11-22.34-1-45-1.08-67.3-.23a4.57 4.57 0 11-.35-9.14c22.57-.86 45.47-.79 68.06.23 23.25 1 46.76 3.13 69.86 6.17a3.5 3.5 0 003.95-3 3.61 3.61 0 00-.63-2.81 3.4 3.4 0 00-2.26-1.34c-23.19-3.3-46.81-5.64-70.21-7-24.18-1.36-48.74-1.65-73-.86a4.57 4.57 0 00-3.79 2.26 4.57 4.57 0 11-7.91-4.59 13.81 13.81 0 0111.4-6.82c24.53-.79 49.37-.5 73.81.87 23.66 1.33 47.54 3.69 71 7a12.46 12.46 0 018.29 4.92 12.6 12.6 0 012.4 9.4l-.06.36A12.67 12.67 0 012054.14 1241.24z"></path><path fill="#c1b9b2" d="M2086.35 1263.75a10.51 10.51 0 01-5-1.29 4.64 4.64 0 01-1.91-1.94 43.62 43.62 0 00-5.49-8.24 44.37 44.37 0 00-15-11.48 4.58 4.58 0 113.92-8.27 53.46 53.46 0 0118.08 13.85 52.82 52.82 0 015.66 8.14 2.7 2.7 0 001.08-1.26 50 50 0 00-25.69-23 4.58 4.58 0 013.41-8.5 59.26 59.26 0 0131.31 29 4.56 4.56 0 01.38 2.86c-1 5.33-4.81 9.34-9.46 10A9.65 9.65 0 012086.35 1263.75zM2108.73 1070.68a4.54 4.54 0 01-3.15-1.26c-24.22-23-54.87-23.58-60.73-23.46l-.23-4.57 0-4.58c6.58-.1 40.49.53 67.3 26a4.58 4.58 0 01-3.15 7.9zM2062.9 1213.58a4.58 4.58 0 01-3.88-2.14c-9.93-15.77-53.35-28.13-58.84-28.87a4.57 4.57 0 01-1.34-9c4.73-1.34 55.64 13.46 67.93 33a4.6 4.6 0 01-1.43 6.32A4.65 4.65 0 012062.9 1213.58zm-61.57-31.18zm0 0zM2163.14 1437.21h-.06a4.57 4.57 0 01-4.51-4.64c.28-21.23 1.18-38.47 3-57.66a4.58 4.58 0 119.11.86c-1.81 19.19-2.67 35.68-3 56.92A4.59 4.59 0 012163.14 1437.21zM2304.53 1471.8h-.28A4.57 4.57 0 012300 1467c1.07-17.7.84-31.11.62-44.08-.25-14-.48-27.31 1.1-43.76 1.11-11.67 12.27-45.3 37.41-120.26l7.35-21.89c18.69-55.64 24.33-72.43 30-99.13 3.93-18.5 7-37.44 9.06-56.28a32.19 32.19 0 00-22-34l-66.56-21.66a45.33 45.33 0 00-36.86 3.76 46.12 46.12 0 00-22.13 30c-1.72 7.66-3.1 15.48-4.1 23.26a258.15 258.15 0 00-1.87 44.47 55.94 55.94 0 01-4.57 24.78A729.4 729.4 0 002173.33 1351a4.58 4.58 0 11-9.08-1.13A739.16 739.16 0 012219 1148.51a46.67 46.67 0 003.84-20.75 268.56 268.56 0 011.93-46.06c1-8 2.47-16.14 4.25-24.07a55.06 55.06 0 0170.75-40.43l66.56 21.66a41.37 41.37 0 0128.26 43.7c-2.11 19.13-5.21 38.37-9.19 57.18-5.77 27.2-11.45 44.11-30.27 100.13l-7.35 21.88c-22.39 66.8-35.91 107.12-37 118.23-1.53 15.93-1.31 29-1.07 42.73.23 13.14.46 26.74-.63 44.79A4.57 4.57 0 012304.53 1471.8zM2297.22 1533.22a4.22 4.22 0 01-.79-.07 4.57 4.57 0 01-3.73-5.28c.32-1.86.64-3.77 1-5.76.54-3.31 1.07-6.8 1.6-10.44a4.58 4.58 0 019.06 1.31q-.81 5.55-1.63 10.6-.49 3-1 5.84A4.58 4.58 0 012297.22 1533.22z"></path><path fill="#c1b9b2" d="M2267.84 1471.8h0a4.58 4.58 0 01-4.57-4.58c0-17.38.73-35 2.1-52.26a4.57 4.57 0 119.12.72c-1.35 17.06-2 34.41-2.07 51.55A4.58 4.58 0 012267.84 1471.8zM2277 1362.24a4.76 4.76 0 01-.75-.07 4.57 4.57 0 01-3.77-5.26c2.18-13.05 4.78-26.22 7.73-39.14a676 676 0 0145.12-132.54 37.79 37.79 0 003.49-17.29 185.77 185.77 0 0127-104.71 4.58 4.58 0 017.81 4.77 176.67 176.67 0 00-25.69 99.54 46.83 46.83 0 01-4.34 21.52 667.75 667.75 0 00-44.5 130.74c-2.92 12.75-5.48 25.74-7.62 38.61A4.58 4.58 0 012277 1362.24zM2286.07 1519.82a4.6 4.6 0 01-1.8-.37 81.2 81.2 0 00-51.06-4.3 4.57 4.57 0 01-2.15-8.89 90.24 90.24 0 0156.82 4.78 4.58 4.58 0 01-1.81 8.78zM2171.67 1319.38a3.38 3.38 0 01-.55 0c-.39 0-39.9-4.69-64.58-6.8a763.59 763.59 0 00-80.8-2.49h-.1a4.58 4.58 0 01-.09-9.15 773.77 773.77 0 0181.76 2.53c24.84 2.11 64.49 6.78 64.89 6.83a4.57 4.57 0 01-.53 9.11zM2170.74 1340.58a4.73 4.73 0 01-.75 0 654.34 654.34 0 00-67.59-7.53 661 661 0 00-71.22-.3 4.61 4.61 0 01-4.8-4.34 4.57 4.57 0 014.34-4.79 661.69 661.69 0 01140.75 7.93 4.57 4.57 0 01-.73 9.08zM2251 1384.87a13.34 13.34 0 01-1.89-.13c-27.83-3.67-56.16-6.18-84.21-7.45-29.44-1.32-59.3-1.32-88.73 0a4.24 4.24 0 01-1.23-.1 16.8 16.8 0 01-12.47-11.74 14.69 14.69 0 012.41-12.72 15.81 15.81 0 0112.1-6.35c29.81-1 60-.61 89.8 1 28.77 1.61 57.83 4.49 86.37 8.55a14.38 14.38 0 0112.18 16.31c0 .11 0 .23 0 .26A14.48 14.48 0 012251 1384.87zm-130.47-17.72c15 0 29.92.33 44.78 1 28.31 1.28 56.91 3.8 85 7.51a5.29 5.29 0 005.93-4.44l4.56.41-4.53-.66a5.22 5.22 0 00-1-3.91 5.16 5.16 0 00-3.41-2c-28.28-4-57.08-6.87-85.59-8.47-29.51-1.65-59.45-2-89-1a6.6 6.6 0 00-5.05 2.66 5.44 5.44 0 00-1 4.7 7.62 7.62 0 005.19 5.24C2091.09 1367.48 2105.82 1367.15 2120.55 1367.15z"></path><path fill="#c1b9b2" d="M2289.5 1412.28a11.84 11.84 0 01-5.58-1.45 4.55 4.55 0 01-1.92-1.94 54.27 54.27 0 00-25.43-24.46 4.58 4.58 0 013.92-8.27 63.57 63.57 0 0128.81 27 2.67 2.67 0 00.4 0 4 4 0 002.57-2.65 62 62 0 00-32-28.89 4.58 4.58 0 113.4-8.5 71.11 71.11 0 0137.61 34.89 4.49 4.49 0 01.39 2.86c-1.15 6.07-5.44 10.63-10.68 11.35A10.24 10.24 0 012289.5 1412.28zM2316.74 1177.15a4.56 4.56 0 01-3.15-1.26c-29.77-28.26-67.47-29-74.67-28.84l-.26-4.57 0-4.58c8-.13 48.88.62 81.26 31.35a4.58 4.58 0 01.16 6.47A4.52 4.52 0 012316.74 1177.15zM2260.93 1351.18a4.57 4.57 0 01-3.88-2.13c-12.4-19.69-66.45-34.88-72.46-35.63a4.57 4.57 0 01-1.41-9c5.67-1.64 66.83 16.25 81.61 39.72a4.57 4.57 0 01-1.43 6.31A4.52 4.52 0 012260.93 1351.18zm-75.25-37.93h0zm0 0h0zM2382.32 1640.19h-.06a4.56 4.56 0 01-4.51-4.64c.31-23.37 1.5-47 3.52-70.27a4.58 4.58 0 119.12.79c-2 23-3.18 46.46-3.49 69.61A4.58 4.58 0 012382.32 1640.19zM2523.57 1790.79a4.58 4.58 0 01-.82-9.08l2.43-.44a29.52 29.52 0 0023.66-24c2.38-13.78 4.41-27.85 6-41.83 4.89-42 4.43-68.74 4-92.35-.31-17.88-.6-34.77 1.4-55.68 1.41-14.72 15.63-57.59 47.66-153.13l9.32-27.77c23.9-71.13 31.11-92.59 38.35-126.74 5-23.65 8.91-47.85 11.57-71.93a42.34 42.34 0 00-28.93-44.69l-84.9-27.63a59 59 0 00-48 4.9 60.16 60.16 0 00-28.83 39c-2.19 9.78-4 19.79-5.25 29.78a330.33 330.33 0 00-2.38 57 70 70 0 01-5.75 31.06 931.88 931.88 0 00-68.77 251.86 4.61 4.61 0 01-5.11 4 4.57 4.57 0 01-4-5.11 941 941 0 0169.45-254.33 60.88 60.88 0 005-27 338.77 338.77 0 012.45-58.54c1.32-10.26 3.14-20.55 5.39-30.6a69 69 0 0188.64-50.64l84.9 27.63a51.54 51.54 0 0135.2 54.4c-2.7 24.37-6.64 48.87-11.72 72.82-7.35 34.66-14.6 56.24-38.62 127.75l-9.33 27.76c-28.59 85.31-45.85 136.8-47.22 151.1-1.95 20.4-1.67 37-1.36 54.66.41 23.89.88 51-4.08 93.56-1.65 14.14-3.71 28.38-6.11 42.32a38.71 38.71 0 01-31 31.4l-2.43.44A4.56 4.56 0 012523.57 1790.79z"></path><path fill="#c1b9b2" d="M2516.32 1713.35a4.57 4.57 0 01-4.57-4.43 866.41 866.41 0 012.22-95.75 4.57 4.57 0 119.12.72 857.75 857.75 0 00-2.19 94.73 4.58 4.58 0 01-4.43 4.73zM2527.55 1544.55a5 5 0 01-.76-.06 4.56 4.56 0 01-3.75-5.26c2.77-16.64 6.08-33.41 9.83-49.86a862.11 862.11 0 0157.47-168.82 49.36 49.36 0 004.58-22.65 235.7 235.7 0 0134.29-132.85 4.58 4.58 0 117.81 4.77 226.61 226.61 0 00-32.95 127.69 58.61 58.61 0 01-5.42 26.86 854.53 854.53 0 00-56.86 167c-3.71 16.26-7 32.86-9.73 49.32A4.57 4.57 0 012527.55 1544.55zM2539.14 1745.58a4.57 4.57 0 01-1.8-.37 104.77 104.77 0 00-65.94-5.55 4.57 4.57 0 01-2.15-8.89 113.78 113.78 0 0171.69 6 4.57 4.57 0 01-1.8 8.78zM2393.19 1489.89a5.83 5.83 0 01-.59 0c-5.22-.62-52-6.08-82.38-8.68A979.12 979.12 0 002207 1478a4.7 4.7 0 01-4.67-4.48 4.58 4.58 0 014.48-4.67 986.81 986.81 0 01104.18 3.23c30.56 2.6 77.43 8.08 82.67 8.7a4.57 4.57 0 01-.48 9.12zM2392 1516.93a4.73 4.73 0 01-.75 0 835.1 835.1 0 00-177.34-10 4.57 4.57 0 11-.46-9.13 843.56 843.56 0 01179.29 10.09 4.58 4.58 0 01-.74 9.09zM2494.42 1573.42a18.84 18.84 0 01-2.24-.14c-35.52-4.69-71.7-7.89-107.53-9.51-36.2-1.63-72.91-1.7-109.09-.18a4.58 4.58 0 01-.38-9.15c36.45-1.52 73.41-1.46 109.88.19 36.1 1.63 72.54 4.85 108.32 9.57a8 8 0 009-6.74l.05-.31a8 8 0 00-1.51-5.93 7.8 7.8 0 00-5.19-3.07c-36.13-5.15-72.9-8.78-109.29-10.82-37.67-2.11-75.91-2.56-113.63-1.34a9.59 9.59 0 00-8.63 6.12 7.84 7.84 0 00-.49 2.21 4.58 4.58 0 01-9.13-.67 17.42 17.42 0 011-4.71 18.82 18.82 0 0116.92-12.09c38-1.23 76.5-.78 114.44 1.34 36.65 2.06 73.68 5.72 110.07 10.89a17.1 17.1 0 0114.46 19.39l0 .31A17.21 17.21 0 012494.42 1573.42z"></path><path fill="#c1b9b2" d="M2543.51 1608.39a13.76 13.76 0 01-6.52-1.7 4.5 4.5 0 01-1.92-1.94 70.56 70.56 0 00-8.84-13.26 71.66 71.66 0 00-24.18-18.51 4.57 4.57 0 113.92-8.26 79.93 79.93 0 0136.46 34.36 3.49 3.49 0 001.52.13c1.86-.25 3.6-2.16 4.46-4.71a80.37 80.37 0 00-41.76-37.93 4.58 4.58 0 013.41-8.5 89.56 89.56 0 0147.31 43.89 4.55 4.55 0 01.39 2.86c-1.37 7.2-6.41 12.61-12.56 13.46A13.57 13.57 0 012543.51 1608.39zM2578.25 1308.44a4.52 4.52 0 01-3.14-1.25c-38.34-36.39-86.87-37.33-96.15-37.14h-.3a4.58 4.58 0 010-9.15c10.09-.17 61.83.8 102.76 39.65a4.57 4.57 0 01-3.15 7.89zM2507.06 1530.45a4.57 4.57 0 01-3.88-2.13c-16.19-25.72-86.23-45.28-93.44-46a4.58 4.58 0 01-1.51-9c5.12-1.49 83.88 20.26 102.7 50.13a4.58 4.58 0 01-1.44 6.31A4.5 4.5 0 012507.06 1530.45zm-96.32-48.34h0zM2473.09 1715.72a4.57 4.57 0 01-4.24-2.88c-11.32-28.3-78.15-60.66-78.83-61a4.58 4.58 0 014-8.25c2.89 1.39 70.72 34.24 83.36 65.84a4.57 4.57 0 01-2.55 5.94A4.4 4.4 0 012473.09 1715.72zM2213.69 1476.2a4.6 4.6 0 01-3-1.11c-15.79-13.65-39.69-25.21-39.93-25.32a4.58 4.58 0 014-8.25c1 .49 25.23 12.18 42 26.64a4.58 4.58 0 01-3 8zM2019.91 1308.22a4.57 4.57 0 01-3.48-1.6c-5.2-6.06-17-14.14-21-15.49a4.58 4.58 0 01-5.61-6.55 5.58 5.58 0 014.39-2.74c6.8-.61 23.45 12.16 29.17 18.83a4.57 4.57 0 01-3.47 7.55zM209 1804.83a4.58 4.58 0 01-3.09-7.95L918.52 1144a4.58 4.58 0 116.18 6.75L212.1 1803.63A4.55 4.55 0 01209 1804.83zM762.39 1284.21a4.56 4.56 0 01-4.57-4.51c-.21-15.39-1-31-2.38-46.25a4.57 4.57 0 119.11-.82c1.39 15.54 2.21 31.33 2.42 46.95a4.57 4.57 0 01-4.52 4.63zM646.14 1309.88a4.56 4.56 0 01-4.56-4.34c-.72-13.51-.54-24-.37-34.06.2-11.29.38-22-.86-35-.87-9-12-42.1-30.33-96.89l-6-18c-15.46-46-20.13-59.93-24.88-82.32-3.28-15.48-5.82-31.3-7.56-47a34.79 34.79 0 0123.77-36.75L650 937.74a46 46 0 0159.15 33.8c1.46 6.53 2.63 13.21 3.49 19.84a219.85 219.85 0 011.59 38 37.71 37.71 0 003.09 16.68 607.21 607.21 0 0145 165.54l.18 1.41a4.58 4.58 0 01-9.09 1.11l-.13-1.11a598.44 598.44 0 00-44.36-163.33 46.69 46.69 0 01-3.83-20.71 211.61 211.61 0 00-1.52-36.38c-.82-6.36-1.95-12.76-3.35-19a37.09 37.09 0 00-17.78-24.07 36.32 36.32 0 00-29.61-3l-54.65 17.78a25.61 25.61 0 00-17.51 27c1.71 15.44 4.2 31 7.42 46.14 4.64 21.87 9.27 35.65 24.61 81.31l6 18c21.19 63.21 29.83 89.25 30.75 98.93 1.3 13.56 1.11 24.47.91 36-.17 9.94-.35 20.22.35 33.42a4.57 4.57 0 01-4.32 4.81zM650.68 1353a4.58 4.58 0 01-4.52-3.89c-.87-5.75-1.65-11.54-2.31-17.22a4.58 4.58 0 019.09-1.06c.65 5.58 1.41 11.27 2.27 16.91a4.58 4.58 0 01-3.84 5.21A5.6 5.6 0 01650.68 1353z"></path><path fill="#c1b9b2" d="M671.48 1381.15a4.67 4.67 0 01-.83-.08l-1.56-.28a4.57 4.57 0 111.64-9l1.57.28a4.58 4.58 0 01-.82 9.08zM676.4 1308.22a4.57 4.57 0 01-4.57-4.53l-.06-3.93c-.18-11.27-.73-22.7-1.62-34a4.57 4.57 0 019.12-.72c.91 11.46 1.46 23.09 1.65 34.55 0 1.34 0 2.67.06 4a4.58 4.58 0 01-4.54 4.62zM668.91 1222.65a4.57 4.57 0 01-4.51-3.82c-1.76-10.57-3.86-21.22-6.24-31.66A548 548 0 00621.66 1080a39.41 39.41 0 01-3.63-18 144.28 144.28 0 00-21-81.28 4.57 4.57 0 117.81-4.76 153.41 153.41 0 0122.3 86.43 30.22 30.22 0 002.8 13.82 557.31 557.31 0 0137.11 109c2.42 10.61 4.55 21.44 6.35 32.19a4.57 4.57 0 01-3.76 5.26A5 5 0 01668.91 1222.65zM661.45 1352.05a4.58 4.58 0 01-1.8-8.78 74.79 74.79 0 0147.17-4 4.57 4.57 0 11-2.15 8.89 65.78 65.78 0 00-41.42 3.49A4.57 4.57 0 01661.45 1352.05zM755.39 1187.47a4.58 4.58 0 01-.53-9.12c.33 0 32.9-3.87 53.3-5.61a637.67 637.67 0 0167.23-2.08 4.57 4.57 0 014.48 4.67 4.65 4.65 0 01-4.67 4.48 630.07 630.07 0 00-66.26 2c-20.26 1.73-52.68 5.55-53 5.59zM756.15 1204.88a4.58 4.58 0 01-.73-9.09 545.71 545.71 0 01115.74-6.53 4.57 4.57 0 014.34 4.8 4.65 4.65 0 01-4.79 4.34 535.71 535.71 0 00-113.81 6.42A4.74 4.74 0 01756.15 1204.88zM690.87 1241.24a12.8 12.8 0 01-10.18-20.43 12.46 12.46 0 018.29-4.92c23.44-3.34 47.33-5.7 71-7 24.44-1.37 49.28-1.66 73.8-.87a13.83 13.83 0 0111.41 6.82 4.57 4.57 0 11-7.91 4.59 4.58 4.58 0 00-3.79-2.26c-24.26-.78-48.82-.49-73 .86-23.4 1.31-47 3.65-70.21 7a3.4 3.4 0 00-2.26 1.34 3.53 3.53 0 00-.67 2.61 3.59 3.59 0 004 3.15c23.1-3 46.61-5.12 69.85-6.17 22.6-1 45.5-1.09 68.07-.23a4.57 4.57 0 11-.35 9.14c-22.32-.86-45-.78-67.3.23-23 1-46.23 3.09-69.08 6.11A13.19 13.19 0 01690.87 1241.24z"></path><path fill="#c1b9b2" d="M658.64 1263.75a8.17 8.17 0 01-1.31-.1c-4.65-.63-8.46-4.64-9.47-10a4.63 4.63 0 01.39-2.86 59.26 59.26 0 0131.31-29 4.58 4.58 0 013.41 8.5 50.22 50.22 0 00-25.7 23 2.76 2.76 0 001.09 1.26 52.82 52.82 0 015.66-8.14 53.36 53.36 0 0118.08-13.85 4.58 4.58 0 013.92 8.27 43.72 43.72 0 00-20.5 19.72 4.64 4.64 0 01-1.91 1.94A10.58 10.58 0 01658.64 1263.75zM636.27 1070.68a4.52 4.52 0 01-3.31-1.43 4.58 4.58 0 01.16-6.47c26.81-25.44 60.69-26.09 67.21-26a4.64 4.64 0 014.56 4.62 4.52 4.52 0 01-4.51 4.53h-.23c-5.88-.11-36.51.47-60.73 23.46A4.54 4.54 0 01636.27 1070.68zM682.1 1213.58a4.57 4.57 0 01-3.87-7c12.28-19.49 63.22-34.28 67.93-33a4.57 4.57 0 01-1.34 9c-5.49.74-48.91 13.1-58.85 28.87A4.57 4.57 0 01682.1 1213.58zm61.57-31.18zm0 0h0zM581.86 1437.21a4.59 4.59 0 01-4.58-4.52c-.28-21.27-1.14-37.76-2.95-56.92a4.58 4.58 0 119.11-.86c1.83 19.42 2.7 36.13 3 57.66a4.58 4.58 0 01-4.51 4.64zM440.47 1471.8a4.57 4.57 0 01-4.56-4.3c-1.1-18-.86-31.64-.63-44.78.23-13.78.46-26.8-1.07-42.74-1.06-11.1-14.58-51.43-37-118.23l-7.34-21.86c-18.83-56-24.51-72.94-30.28-100.15-4-18.82-7.08-38.06-9.19-57.18a41.37 41.37 0 0128.26-43.7l66.56-21.66A55.06 55.06 0 01516 1057.62c1.78 7.93 3.2 16 4.24 24.08a266.43 266.43 0 011.93 46.06 47 47 0 003.84 20.75 741.69 741.69 0 0133 93.24 743.28 743.28 0 0121.74 108.1 4.58 4.58 0 11-9.08 1.13 733.53 733.53 0 00-21.47-106.77 734.45 734.45 0 00-32.59-92.08 55.9 55.9 0 01-4.58-24.78 258 258 0 00-1.86-44.47c-1-7.78-2.38-15.6-4.1-23.26a46.14 46.14 0 00-22.12-30 45.32 45.32 0 00-36.87-3.76l-66.56 21.66a32.19 32.19 0 00-22 34c2.08 18.83 5.13 37.76 9.05 56.28 5.66 26.7 11.31 43.5 30 99.14l7.34 21.88c25.79 76.9 36.29 108.58 37.41 120.26 1.58 16.45 1.35 29.72 1.1 43.77-.22 13-.45 26.37.62 44.07a4.57 4.57 0 01-4.29 4.84zM447.78 1533.22a4.57 4.57 0 01-4.5-3.8c-.33-1.88-.65-3.83-1-5.84q-.82-5-1.63-10.6a4.58 4.58 0 019.06-1.31q.79 5.47 1.6 10.44c.32 2 .65 3.9 1 5.76a4.57 4.57 0 01-3.73 5.28A4.11 4.11 0 01447.78 1533.22z"></path><path fill="#c1b9b2" d="M477.16 1471.8a4.58 4.58 0 01-4.57-4.57c0-17.12-.72-34.47-2.07-51.55a4.57 4.57 0 119.12-.72c1.36 17.32 2.07 34.9 2.1 52.26a4.59 4.59 0 01-4.57 4.58zM468 1362.24a4.58 4.58 0 01-4.51-3.83c-2.15-12.89-4.71-25.88-7.62-38.61a668 668 0 00-44.51-130.74 47 47 0 01-4.33-21.52A176.67 176.67 0 00381.35 1068a4.58 4.58 0 017.81-4.77 185.86 185.86 0 0127 104.7 38 38 0 003.5 17.3 677.31 677.31 0 0145.12 132.54c2.95 12.9 5.55 26.07 7.72 39.14a4.56 4.56 0 01-3.76 5.26A4.76 4.76 0 01468 1362.24zM458.93 1519.82a4.58 4.58 0 01-1.81-8.78 90.24 90.24 0 0156.82-4.78 4.57 4.57 0 11-2.15 8.89 81.2 81.2 0 00-51.06 4.3A4.6 4.6 0 01458.93 1519.82zM573.33 1319.38a4.57 4.57 0 01-.53-9.11c.4 0 40.05-4.72 64.88-6.83a771.38 771.38 0 0181.77-2.53 4.58 4.58 0 01-.19 9.15 763.59 763.59 0 00-80.8 2.49c-24.68 2.11-64.19 6.76-64.58 6.8A3.44 3.44 0 01573.33 1319.38zM574.26 1340.58a4.57 4.57 0 01-.74-9.08 661.84 661.84 0 01140.76-7.93 4.57 4.57 0 014.34 4.79 4.63 4.63 0 01-4.8 4.34A652.51 652.51 0 00575 1340.53 4.73 4.73 0 01574.26 1340.58zM494 1384.87a14.48 14.48 0 01-14.29-12.33l0-.25A14.38 14.38 0 01491.83 1356c28.54-4.06 57.6-6.94 86.36-8.55 29.78-1.67 60-2 89.8-1a15.81 15.81 0 0112.11 6.35 14.61 14.61 0 012.46 12.52A16.86 16.86 0 01670 1377.19a4.21 4.21 0 01-1.23.1c-29.43-1.32-59.29-1.32-88.73 0-28.05 1.27-56.38 3.78-84.21 7.45A13.44 13.44 0 01494 1384.87zM488.71 1371c0 .07 0 .29 0 .31a5.27 5.27 0 005.92 4.38c28.09-3.71 56.68-6.23 85-7.51 29.49-1.34 59.38-1.35 88.87 0a7.58 7.58 0 005.17-5.15 5.53 5.53 0 00-1-4.79 6.62 6.62 0 00-5-2.66c-29.55-1-59.49-.6-89 1-28.51 1.6-57.31 4.44-85.59 8.47a5.22 5.22 0 00-4.41 5.94z"></path><path fill="#c1b9b2" d="M455.5 1412.28a10.14 10.14 0 01-1.46-.1c-5.24-.72-9.53-5.28-10.68-11.35a4.56 4.56 0 01.38-2.86 71.21 71.21 0 0137.61-34.89 4.58 4.58 0 013.41 8.5 62 62 0 00-32 28.89 3.91 3.91 0 002.56 2.64 1.42 1.42 0 00.41 0 63.6 63.6 0 0128.8-27 4.58 4.58 0 013.93 8.27A54.39 54.39 0 00463 1408.89a4.58 4.58 0 01-1.91 1.94A11.79 11.79 0 01455.5 1412.28zM428.26 1177.15a4.58 4.58 0 01-3.15-7.9c32.37-30.72 73.28-31.49 81.15-31.35a4.65 4.65 0 014.57 4.62 4.5 4.5 0 01-4.49 4.53h-.26c-7.26-.13-44.89.57-74.67 28.84A4.56 4.56 0 01428.26 1177.15zM484.07 1351.18a4.5 4.5 0 01-2.43-.7 4.57 4.57 0 01-1.43-6.31c14.78-23.47 75.94-41.37 81.61-39.72a4.57 4.57 0 01-1.42 9c-6 .75-60 15.94-72.45 35.63A4.57 4.57 0 01484.07 1351.18zm75.25-37.93h0zm0 0h0zM362.68 1640.19a4.58 4.58 0 01-4.58-4.51c-.31-23.19-1.49-46.61-3.49-69.61a4.58 4.58 0 119.12-.79c2 23.22 3.21 46.87 3.52 70.27a4.56 4.56 0 01-4.51 4.64zM221.43 1790.79a4.76 4.76 0 01-.83-.08l-2.42-.44a38.71 38.71 0 01-31-31.4c-2.41-14-4.47-28.24-6.11-42.32-5-42.59-4.49-69.67-4.08-93.56.31-17.62.59-34.26-1.36-54.66-1.37-14.31-18.63-65.79-47.23-151.1L119 1389.34c-24-71.42-31.24-93-38.58-127.62-5.08-24-9-48.47-11.72-72.82a51.54 51.54 0 0135.2-54.4l84.9-27.63a69 69 0 0188.64 50.64c2.25 10.09 4.07 20.38 5.39 30.6a339.69 339.69 0 012.45 58.54 61 61 0 005 27 943.32 943.32 0 0142 118.77A945.26 945.26 0 01359.74 1528a4.58 4.58 0 01-9.08 1.15 936.72 936.72 0 00-27.16-134.24 935.66 935.66 0 00-41.62-117.62 70.13 70.13 0 01-5.74-31.06 330.29 330.29 0 00-2.39-57c-1.28-10-3-20-5.24-29.78a60.14 60.14 0 00-28.84-39 59 59 0 00-48-4.9l-84.9 27.63a42.33 42.33 0 00-28.93 44.69c2.66 24.06 6.55 48.26 11.57 71.93 7.23 34.12 14.43 55.56 38.3 126.6l9.37 27.91c32 95.54 46.25 138.4 47.66 153.13 2 20.92 1.71 37.8 1.4 55.69-.41 23.61-.87 50.36 4 92.34 1.62 13.92 3.65 28 6 41.83a29.52 29.52 0 0023.66 24l2.43.44a4.58 4.58 0 01-.82 9.08z"></path><path fill="#c1b9b2" d="M228.68 1713.35h-.15a4.58 4.58 0 01-4.43-4.73 858 858 0 00-2.19-94.73 4.57 4.57 0 119.12-.72 866.58 866.58 0 012.22 95.75A4.58 4.58 0 01228.68 1713.35zM217.45 1544.55a4.57 4.57 0 01-4.51-3.82c-2.75-16.47-6-33.07-9.73-49.32a853.35 853.35 0 00-56.86-167 58.68 58.68 0 01-5.42-26.87 226.48 226.48 0 00-5.45-60 226.16 226.16 0 00-27.5-67.7 4.58 4.58 0 017.81-4.77 235.24 235.24 0 0128.61 70.44 235.85 235.85 0 015.68 62.41 49.36 49.36 0 004.58 22.65 863 863 0 0157.47 168.82c3.75 16.43 7.06 33.2 9.83 49.86a4.56 4.56 0 01-3.76 5.26A4.74 4.74 0 01217.45 1544.55zM205.86 1745.58a4.57 4.57 0 01-1.8-8.78 113.78 113.78 0 0171.69-6 4.57 4.57 0 11-2.16 8.89 104.75 104.75 0 00-65.93 5.55A4.6 4.6 0 01205.86 1745.58zM351.81 1489.89a4.57 4.57 0 01-.53-9.11c.51-.06 51.06-6 82.72-8.71a986.64 986.64 0 01104.18-3.23 4.58 4.58 0 01-.2 9.15 979 979 0 00-103.2 3.19c-31.52 2.69-81.93 8.62-82.43 8.68A4.89 4.89 0 01351.81 1489.89zM353 1516.93a4.58 4.58 0 01-.74-9.09 843.56 843.56 0 01179.29-10.09 4.58 4.58 0 014.34 4.79 4.67 4.67 0 01-4.8 4.34 835.1 835.1 0 00-177.34 10A4.81 4.81 0 01353 1516.93zM250.58 1573.42a17.21 17.21 0 01-17-14.65l4.48-1-4.52.66A17.1 17.1 0 01248 1539.08c36.39-5.17 73.42-8.83 110.07-10.89 37.94-2.12 76.44-2.58 114.44-1.34a18.79 18.79 0 0116.91 12.08 17.12 17.12 0 011 4.72 4.57 4.57 0 11-9.12.67 8.2 8.2 0 00-.49-2.21 9.59 9.59 0 00-8.63-6.12c-37.72-1.22-76-.77-113.63 1.34-36.39 2-73.16 5.67-109.29 10.82a7.8 7.8 0 00-5.19 3.07 7.93 7.93 0 00-1.51 5.94l.05.36a8 8 0 009 6.68c35.77-4.72 72.21-7.94 108.31-9.57 36.46-1.65 73.43-1.71 109.88-.19a4.58 4.58 0 01-.38 9.15c-36.18-1.51-72.89-1.45-109.09.18-35.83 1.62-72 4.82-107.53 9.51A18.84 18.84 0 01250.58 1573.42z"></path><path fill="#c1b9b2" d="M201.49 1608.39a11.89 11.89 0 01-1.69-.11c-6.15-.85-11.2-6.26-12.56-13.46a4.55 4.55 0 01.38-2.86 89.54 89.54 0 0147.32-43.89 4.58 4.58 0 113.4 8.5 80.4 80.4 0 00-41.75 37.93c.85 2.55 2.6 4.46 4.46 4.71a3.5 3.5 0 001.52-.13A79.93 79.93 0 01239 1564.72 4.57 4.57 0 11243 1573a70.94 70.94 0 00-33 31.77 4.51 4.51 0 01-1.9 1.94A13.8 13.8 0 01201.49 1608.39zM166.74 1308.44a4.51 4.51 0 01-3.31-1.42 4.58 4.58 0 01.16-6.47c40.94-38.85 92.66-39.85 102.63-39.65a4.67 4.67 0 014.59 4.62 4.49 4.49 0 01-4.47 4.53H266c-9.37-.22-57.81.75-96.15 37.14A4.53 4.53 0 01166.74 1308.44zM237.94 1530.45a4.53 4.53 0 01-2.44-.7 4.58 4.58 0 01-1.43-6.31c18.82-29.87 97.62-51.53 102.7-50.13a4.58 4.58 0 01-1.51 9c-7.21.77-77.25 20.33-93.45 46A4.56 4.56 0 01237.94 1530.45zm96.32-48.34h0zM271.9 1715.72a4.38 4.38 0 01-1.69-.33 4.57 4.57 0 01-2.55-5.94c12.63-31.6 80.47-64.45 83.36-65.84a4.58 4.58 0 014 8.25c-.68.32-67.51 32.68-78.83 61A4.57 4.57 0 01271.9 1715.72zM531.3 1476.2a4.58 4.58 0 01-3-8c16.73-14.46 40.93-26.15 42-26.64a4.58 4.58 0 014 8.25c-.24.11-24.14 11.67-39.94 25.32A4.58 4.58 0 01531.3 1476.2zM725.09 1308.22a4.57 4.57 0 01-3.47-7.55c5.72-6.66 22.31-19.43 29.17-18.83a5.55 5.55 0 014.38 2.74 4.57 4.57 0 01-5.6 6.55c-4 1.35-15.8 9.43-21 15.49A4.53 4.53 0 01725.09 1308.22z"></path><path fill="#e88585" fill-rule="evenodd" d="M1168.79,419.92s6.22-10.37,13.48-33.17c6.22-18.65,12.44-47.67,32.13-62.18,15.54-11.4,31.09-19.69,49.74-28,36.28-16.59,64.26-42.5,103.64-46.64,49.75-5.18,107.79,15.54,135.77,45.6,13.48,14.51,36.28,37.31,53.9,46.64,11.4,6.22,22.8,1,22.8,1s8.29,20.73-14.51,35.24c0,0,20.72,47.68,22.8,61.15,8.29,65.29-18.66,133.7-18.66,133.7l-387.61,2.07-15.55-70.48Z"></path><path fill="#ffddc0" fill-rule="evenodd" d="M1208.18,566.05c10.36,0,33.16,10.37,47.67-74.62,3.11-17.62,5.19-54.93,27-76.69,13.47-14.51,108.82-52.86,160.64-8.29,10.36,9.32,20.73,33.16,31.09,48.71,11.4,17.62,22.81,26.94,22.81,26.94s8.28,67.37,31.09,78.77,32.12-1,38.34,6.22c49.75,69.44-36.27,94.31-36.27,94.31a219.55,219.55,0,0,1-17.62,56c-13.47,28-35.24,56-35.24,56s-13.47,88.1,9.33,108.82c30.06,27,94.31,53.9,143,74.62,47.68,19.69,79.81,33.17,79.81,33.17H1028.88s26.95-11.4,73.58-32.13,113-49.75,147.17-70.47c30.06-18.66,19.7-116.08,19.7-116.08s-18.66-27-31.1-54.93-19.69-58-19.69-58-28-2.07-40.42-23.84C1163.61,609.58,1166.72,566.05,1208.18,566.05Z"></path><path fill="#fff" fill-rule="evenodd" d="M1477.64,814.37s2-3.18,6.68,4.36,9.77,19.44,9.77,19.44l12.76,26L1502.3,898l-21.93,118.09-17.47,103-14.19,84-5.21,30.88-136-14.17-26.71-145.22-15.18-87.75-14.34-75.18s-6.89-41.19-6-58.75,4.9-36.67,5.21-36.94,18.93-19.7,18.93-19.7l1.22,30-.76,18.52L1304,878.38,1340.34,911s13.7,7.23,15.45,11.43,4,10.35,4,10.35l23.24-1.61,8.34.57s-1.65-5.74,4.25-11.76,28.67-21.33,28.67-22.38S1461,860.55,1461,860.55l16.6-21.09-1.29-20.73Z"></path><path fill="#af8282" fill-rule="evenodd" d="M1323.05,942.4c.91-1.08,23.64-10.17,39.38-10.17s32.86-2,39.51-.48,21,7.7,21,7.7l12.89,11.66s5.94,15.66,4.89,14.47-24.48,10-24.48,10-5.06,22-9.16,28.29a37.31,37.31,0,0,0-5.18,11.58l26.62,135.48s6.07,38.76,7.7,55.44,5.57,37.48,5.57,37.48l-21.26,131.07-21.8,125s-3.57,36.52-5.6,36.66-27.93,0-27.93,0L1354,1472.49l-31.66-171.76-13.49-73.23,8.79-38.6s7.69-72.74,8-73.09,9.1-47.55,8.75-46.15,11.19-57,11.19-57-5.65-1.29-10.27-12-11.07-29.6-11.07-29.6-7,.35-11,.35-9.3-3.83-9.3-3.83l9.3-17.16Z"></path><path fill="#8493a0" fill-rule="evenodd" d="M1477,797.6c-1.83,2.78,25.3,17.64,25.3,17.64S1541,856,1547,860s19.92,29,19.92,29,40.94,18,56.88,25,64.87,24.55,84.11,29.79,50.06,19.39,55.6,23.8,31.73,23,40.43,33.24,28.11,38.13,34,51.53,18.1,45.14,21.23,59.56,11.1,69.65,11.1,69.65l2.55,87.42.25,71.87-3,104.39-4.51,94.71s-3.86,96.44-14.35,118.88-13.25,37.41-22.9,46.86-18.56,18-31.93,22.42-45.1,8.25-59.12,10.24S1716,1740,1716,1740l5.41,79.14L1027.65,1824l4.95-74.47s-4.89,1.71-26.19-.4-30.5-3.84-54.85-13-40.14-9.56-47.21-29.72-16.19-49.88-18.73-65.71-8.91-90.28-8.91-90.28L873.27,1448l-1.36-79.74,3.73-148.21s.77-64.59,9.13-91.68,21.93-65.53,21.93-65.53,22.6-49.84,44.54-68,52.45-36,65.12-40.45,61.08-20.09,61.08-20.09,44.48-18.52,56.15-24,49.74-22.66,49.74-22.66,9.94-19.67,14.4-23.51,30.06-33.86,32.52-33.36,23.42-18.29,23.42-18.29l-7.33,19.34-1.22,32.31,29.19,174,20.28,108L1314.22,1255l26.12,139.14,13.35,85.67,11.55,56.77,28.91-2.22,10.94-62.59,17.3-112.43,15.22-83,14.69-94.42L1472.58,1069l16.08-101.39L1503,889.92l3.85-35-17.48-20.63-9.66-17.48-5.47-9.1S1477.91,796.21,1477,797.6Z"></path><path fill="#ffddc0" fill-rule="evenodd" d="M1182.22 1539.68s-16.64-6.4-25.32-14.33-10-1.84-21.75-28.39-51.16-110.1-51.16-110.1-13.63-36.23-21.07-41.42-17.51-13.47-17.51-13.47l-39.17-18.47L973 1301.61s-9.23-3.26-12.1 2.8-7.74 9.95 0 15.51 17.63 15.26 23.69 17.13 35 21.5 35 21.5l31.61 52.42s-21.3-13.3-22.18-13.78-20.81-10.88-30.84-14.5-48-14.57-48-14.57-43.84-9.31-45.72-9.41-14.22.42-16.26 2-8.6 3.14-3.77 9.48 13.15 13.5 18.43 16.49 54.39 27.28 54.39 27.28-24.1-7.11-35-5.39-22.68-4.4-28.21-.87-14.21-.94-18.11 5.28-7.55 6.43-3.24 11.85 8.18 8.78 13.5 11.07 50.34 15 50.34 15 26.11 7 36.37 11.66 43.69 24.25 43.69 24.25l-18.45-2.81-34.1-4.25s-18.16-.42-26.32-.23-17.88-3.5-22.64-.35-10.32 2.48-12.16 8.07-5.36 7.73-.75 12.33 6.36 6.92 15.67 9.9 29.27 11.73 33.61 10.73 41.63 7 41.63 7l20.34 9.3s8.66 3.59 8.19 3.65 11.43-1.17 34.28 0 75.52 2.29 75.52 2.29l42.9.58zM1448.71 1539.37c4.64-1.14 84.36-13.73 84.36-13.73s53.16-4.77 56.65-5.53 24.57 4.57 24.57 4.57l50.78 18.27 15.57 10s-23.78 0-32.87 4.19-36.37 7.69-50.35 14-53.16 17.48-55.25 18.88-37.92 14.58-37.92 14.58.15-4.09-5.44-13.88-12.35-15.83-18.77-23.3-9.21-16-15.5-18.74S1448.71 1539.37 1448.71 1539.37z"></path><path fill="#56302a" d="M1558.15,1038.26a4.58,4.58,0,0,1-2.81-8.19c23.55-18.27,54.71-29.17,67.18-33.06-12.14-23.08-63.81-120.18-83.85-139.42-23.09-22.17-61.5-54.24-61.89-54.56a4.58,4.58,0,0,1,5.87-7c.38.32,39,32.61,62.35,55,23.75,22.8,85.59,141.67,88.21,146.72a4.58,4.58,0,0,1-2.87,6.53c-.41.11-41.39,11.34-69.39,33.06A4.52,4.52,0,0,1,1558.15,1038.26Z"></path><path fill="#56302a" d="M1393.18,1537.88a5,5,0,0,1-.77-.06,4.57,4.57,0,0,1-3.75-5.27c27.15-161.85,91.65-545.74,104-614.75,14.89-83,1.3-100.14,1.16-100.3a4.49,4.49,0,0,1,0-6.4,4.67,4.67,0,0,1,6.55,0c1.8,1.76,17.19,19.76,1.31,108.31-12.37,69-76.85,452.82-104,614.65A4.57,4.57,0,0,1,1393.18,1537.88Z"></path><path fill="#56302a" d="M1418.21 1536.83a4.58 4.58 0 01-4.17-6.44l194.71-436.74L1483.08 981.19a4.57 4.57 0 116.1-6.82l128.16 114.68a4.58 4.58 0 011.13 5.27l-196.08 439.79A4.57 4.57 0 011418.21 1536.83zM1391.4 932.92a4.51 4.51 0 01-2.7-.88 4.57 4.57 0 01-1-6.39 83.59 83.59 0 0118.59-18.26c22.49-16.27 77-71.41 73.32-86.09-.13-.51-.47-1.87-4.21-2.39a4.58 4.58 0 011.26-9.07c8.58 1.19 11.1 6.31 11.83 9.25 6 24.19-64.68 86.91-76.84 95.71a74.64 74.64 0 00-16.57 16.25A4.56 4.56 0 011391.4 932.92z"></path><path fill="#56302a" d="M1463 1012.38l-.42 0a4.57 4.57 0 01-3.91-3.08c-16.82-49.48-35.56-66.69-48.33-72.41-11-5-18.55-1.88-18.86-1.74a4.63 4.63 0 01-6-2.38 4.56 4.56 0 012.3-6c.45-.2 11.12-4.86 25.83 1.55 19.47 8.46 36.31 31.31 50.14 68 7.59-15.58 22.47-49.31 30.84-89.52a4.58 4.58 0 119 1.86C1491.69 965.41 1468 1008.24 1467 1010A4.58 4.58 0 011463 1012.38zM1503.93 868.76a4.58 4.58 0 01-4.16-2.67l-19.67-42.81a4.58 4.58 0 018.32-3.82l19.67 42.81a4.58 4.58 0 01-2.25 6.07A4.64 4.64 0 011503.93 868.76zM1725.2 1743c-63.4 0-156.15-14.06-293.17-34.83-40-6.06-85.25-12.92-134.24-20.11a4.57 4.57 0 111.33-9c49 7.19 94.31 14 134.28 20.11 228 34.56 332 50.32 379.85 14.55 26.7-20 36.75-57.44 43.62-107.58.25-3.54 27.85-383-2.88-496.11-31.8-117-91.33-143.29-149.59-160.18C1642.06 931.68 1563 889.41 1562.2 889a4.57 4.57 0 014.33-8.06c.79.42 79 42.25 140.42 60.05 58.09 16.85 122.83 45 155.87 166.56 31.14 114.62 4.3 483.82 3.15 499.48-7.22 52.69-18 92.08-47.24 114C1798.07 1736.4 1768.48 1743 1725.2 1743z"></path><path fill="#56302a" d="M1721.38 1823.75a4.57 4.57 0 01-4.55-4.21c-3-37.14-4.76-62.83-5.48-80.83a4.57 4.57 0 119.14-.36c.71 17.87 2.45 43.43 5.46 80.46a4.59 4.59 0 01-4.19 4.93zM1700.26 1553.22l-.37 0a4.57 4.57 0 01-4.2-4.92c6.7-84.85 13.79-168.61 18.09-213.39a1558.85 1558.85 0 0125.12-165.8 4.57 4.57 0 018.93 2 1553.76 1553.76 0 00-24.95 164.7c-4.29 44.73-11.38 128.43-18.07 213.24A4.57 4.57 0 011700.26 1553.22zM1379.87 1823.71a4.57 4.57 0 01-4.57-4.57V1702.42a4.58 4.58 0 119.15 0v116.72A4.57 4.57 0 011379.87 1823.71zM1194.72 1041a4.56 4.56 0 01-2.94-1.07c-28-23.46-72.24-35.6-72.69-35.72a4.59 4.59 0 01-2.87-6.53c2.63-5.05 64.47-123.92 88.22-146.72 23.31-22.38 61.39-54.18 61.77-54.5a4.58 4.58 0 115.87 7c-.38.32-38.22 31.92-61.31 54.08-20 19.24-71.71 116.34-83.85 139.42 13.12 4.09 46.9 15.94 70.74 35.94a4.58 4.58 0 01-2.94 8.08z"></path><path fill="#56302a" d="M1365.24,1537.88a4.58,4.58,0,0,1-4.5-3.75c-29.82-161.67-100.53-545.22-113-614.72-15.88-88.55-.5-106.55,1.31-108.31a4.57,4.57,0,0,1,6.52,6.41c-.5.65-13.5,18.44,1.18,100.29,12.46,69.48,83.16,453,113,614.67a4.56,4.56,0,0,1-3.67,5.33A4,4,0,0,1,1365.24,1537.88Z"></path><path fill="#56302a" d="M1340.34 1537.88a4.56 4.56 0 01-4.15-2.65L1131 1094.39a4.58 4.58 0 011.1-5.34l128.15-114.68a4.57 4.57 0 016.1 6.82l-125.62 112.42 203.75 437.76a4.58 4.58 0 01-4.14 6.51zM1358.48 933.53a4.56 4.56 0 01-3.73-1.91 74.27 74.27 0 00-17-16.82c-.91-.66-90.27-70.07-84-95.43.68-2.74 3.06-7.52 11.31-8.66a4.57 4.57 0 111.26 9.06c-2.23.31-3.47.92-3.69 1.82-3.37 13.51 54.7 67.19 80.43 85.8a83 83 0 0119 18.9 4.57 4.57 0 01-1.06 6.38A4.5 4.5 0 011358.48 933.53z"></path><path fill="#56302a" d="M1286.47 1012.38a4.57 4.57 0 01-4-2.34c-1-1.8-24.73-44.63-36.55-101.39a4.57 4.57 0 119-1.86c8.39 40.26 23.26 74 30.85 89.52 13.83-36.68 30.67-59.54 50.14-68 14.71-6.39 25.39-1.74 25.83-1.54a4.58 4.58 0 01-3.71 8.37c-.4-.17-7.9-3.18-18.86 1.74-12.77 5.72-31.51 22.93-48.33 72.41a4.57 4.57 0 01-3.91 3.08zM1245.51 868.76a4.46 4.46 0 01-1.55-.28 4.58 4.58 0 01-2.76-5.85l16.33-45.44a4.57 4.57 0 118.61 3.09l-16.33 45.45A4.58 4.58 0 011245.51 868.76z"></path><path fill="#56302a" d="M1021.35,1753.89c-41,0-76.47-8.12-103.52-27.67-47.17-34.08-46.29-196.61-46.23-203.51-.66-11.94-16.11-300.61,15-415.18C919.65,986,984.4,957.82,1042.49,941c61.4-17.8,139.63-59.63,140.42-60.05a4.57,4.57,0,0,1,4.32,8.06c-.79.43-79.86,42.7-142.19,60.78-58.26,16.89-117.8,43.18-149.59,160.18-30.75,113.14-14.87,409.57-14.71,412.56,0,1.93-.91,165,42.44,196.3,95.49,69,305.92-12.72,491.58-84.83,124.68-48.41,242.44-94.14,313.17-89.89a4.57,4.57,0,1,1-.55,9.13c-68.76-4.14-185.59,41.25-309.31,89.3C1281.31,1695.62,1131.25,1753.89,1021.35,1753.89Z"></path><path fill="#56302a" d="M1027.66 1828.59l-.38 0a4.57 4.57 0 01-4.19-4.93c2.33-28.34 3.95-50.31 4.94-67.19a4.58 4.58 0 019.14.53c-1 17-2.62 39-5 67.41A4.56 4.56 0 011027.66 1828.59zM1021.6 1324.5a4.58 4.58 0 01-4.55-4.14c-8.63-89.94-23.21-148.59-23.36-149.17a4.58 4.58 0 018.88-2.23c.14.59 14.89 59.84 23.59 150.52a4.58 4.58 0 01-4.12 5zM1323.05 947a4.58 4.58 0 01-1.74-8.81 146.17 146.17 0 01103.16-3 4.58 4.58 0 01-3 8.66 136.91 136.91 0 00-96.71 2.86A4.64 4.64 0 011323.05 947z"></path><path fill="#56302a" d="M1372.18,1021.81c-11.62,0-23.14-1.87-29.83-5.43-15.21-8.12-26.1-58.63-28.13-68.67a4.58,4.58,0,1,1,9-1.81c4.69,23.21,15.08,57.93,23.47,62.41,13.21,7,46.22,5,53.25-1.51,5.57-5.18,16.12-40.61,21.84-64.11a4.57,4.57,0,0,1,8.89,2.16c-2.41,9.9-14.89,59.72-24.49,68.65C1400.1,1019.14,1386.07,1021.81,1372.18,1021.81Z"></path><path fill="#56302a" d="M1418.17 977.83a4.58 4.58 0 01-1.24-9h0A97.77 97.77 0 001439.62 958a4.57 4.57 0 114.89 7.73c-13.64 8.64-24.63 11.78-25.1 11.91A4.41 4.41 0 011418.17 977.83zM1325.29 977.83a4.4 4.4 0 01-.8-.07 71.43 71.43 0 01-21.72-8.25 4.57 4.57 0 114.69-7.85 62.83 62.83 0 0018.63 7.09 4.58 4.58 0 01-.8 9.08zM1315.2 1266.38a4.58 4.58 0 01-4.5-3.75c-11.12-60.39 27.68-243.48 29.33-251.25a4.58 4.58 0 019 1.92c-.4 1.88-40.08 189.06-29.28 247.68a4.58 4.58 0 01-3.67 5.33A4.73 4.73 0 011315.2 1266.38zM1438.81 1266.38h-.37a4.58 4.58 0 01-4.2-4.93c4.84-60.54-36.35-246.23-36.77-248.1a4.57 4.57 0 018.93-2c1.71 7.68 41.91 188.91 37 250.82A4.59 4.59 0 011438.81 1266.38zM1504.26 1606a4.57 4.57 0 01-4-2.31c-29.37-51.55-63.3-64.1-68.53-65.78-122.26 12-300.59 11.18-377.4 6-75.65-5.16-92.19 34.21-92.86 35.89a4.57 4.57 0 01-8.52-3.32c.74-1.94 19.22-47.23 102-41.7 76.68 5.18 255 6 376.78-6a4.56 4.56 0 011.56.12c1.66.41 41.07 10.89 74.92 70.32a4.58 4.58 0 01-1.71 6.24A4.64 4.64 0 011504.26 1606z"></path><path fill="#56302a" d="M1677.6 1553.22a4.6 4.6 0 01-2-.46c-.64-.31-64.79-31.24-95-27.83-31.46 3.49-132.26 19.13-133.27 19.28a4.57 4.57 0 01-1.41-9c1-.16 102-15.82 133.67-19.34 32.86-3.65 97.29 27.38 100 28.7a4.57 4.57 0 01-2 8.69zM1018 1544.26a4.55 4.55 0 01-2.76-.93A73.81 73.81 0 00999 1533.8c-6.73-2.66-20.07-5.34-34.19-8.18-39.26-7.9-65.19-14-67.84-27-1.24-6.07-.33-11.06 2.71-14.85 6.31-7.84 20.29-8.65 37.92-8.91 24.44-1.08 30.71.16 57.11 5.42 26.75 5.32 57.34 26.61 58.63 27.52a4.57 4.57 0 01-5.25 7.49c-.3-.21-30.32-21.09-55.16-26-26.15-5.2-31.59-6.28-55.06-5.25-10.81.16-26.95.4-31 5.51-.47.58-1.89 2.35-.88 7.27 1.63 8 40 15.71 60.68 19.87 15.16 3 28.25 5.68 35.83 8.68a82.94 82.94 0 0118.25 10.7 4.58 4.58 0 01-2.77 8.23z"></path><path fill="#56302a" d="M1038.78,1509.14a4.57,4.57,0,0,1-3-1.12c-38-33-59.91-40.7-81.06-48.14-5.41-1.91-14.13-3.9-23.38-6-31.61-7.21-67.44-15.38-63.82-35.52a14.77,14.77,0,0,1,6.74-9.87c12.88-8.64,45.5-7.42,97,3.62,30.69,6.56,76.83,34.62,94.36,47.18a4.58,4.58,0,1,1-5.33,7.44c-17-12.2-61.66-39.41-91-45.67-66.57-14.29-85.08-8.23-89.95-5a5.68,5.68,0,0,0-2.82,3.88c-2.08,11.55,34.81,20,56.85,25,9.91,2.27,18.48,4.22,24.38,6.29,20.94,7.38,44.67,15.73,84,49.87a4.58,4.58,0,0,1-3,8Z"></path><path fill="#56302a" d="M1075.25,1430.79a4.54,4.54,0,0,1-2.62-.83c-49.32-34.49-78.58-44.88-96.29-49.69-4.76-1.24-10.45-2.88-16.48-4.62-11.23-3.24-24-6.91-36-9.58-25.91-5.16-32.57-2.34-34.23-.88A1.94,1.94,0,0,0,889,1367c.35,9.86,27.53,24.32,80.81,43.14,6,2.13,9,3.18,10.45,3.87a4.57,4.57,0,0,1-3.91,8.27c-1.1-.52-5-1.91-9.59-3.52-44.76-15.8-86.26-33-86.89-51.3a10.88,10.88,0,0,1,3.72-9.19c6.16-5.4,19.15-5.77,42.14-1.19,12.43,2.75,25.31,6.46,36.67,9.74,6,1.72,11.62,3.35,16.3,4.57,18.42,5,48.69,15.73,99.19,51a4.58,4.58,0,0,1-2.63,8.33Z"></path><path fill="#56302a" d="M1191.09 1547.53a4.58 4.58 0 01-1.44-.24c-29.17-9.69-48.64-25.37-57.88-46.61-22-50.89-62.1-137.59-76.17-153.61-11.26-13-24.82-18.51-39.18-24.32-4-1.61-8.08-3.27-12.07-5.09l-4.07-1.71c-12.35-5.22-29.27-12.36-33.69-9.4-1 .68-1.19 2.61-1.17 4.11-.26 10.53 19.19 21.54 34.81 30.39 12.1 6.86 23.53 13.33 28.49 20.3 11.2 15.72 25.93 46.35 26.55 47.65a4.57 4.57 0 11-8.25 4c-.15-.31-15-31.22-25.75-46.29-3.79-5.31-14.85-11.58-25.55-17.65-19.59-11.09-39.84-22.57-39.44-38.4-.08-5.29 1.67-9.27 5.2-11.65 8.53-5.74 24.21.88 42.36 8.56l4.17 1.76c4 1.79 8 3.41 11.84 5 14.74 6 30 12.13 42.65 26.79 16.6 18.9 61.7 119 77.67 156 8.15 18.74 25.77 32.73 52.37 41.57a4.58 4.58 0 01-1.45 8.92zM1376.07 830.76c-31.34 0-92.17-25.73-129.24-82.92-17.69-26.53-25.36-62-32.14-93.38l-1.65-7.63a4.57 4.57 0 118.93-2l1.67 7.65c6.6 30.54 14.08 65.15 30.84 90.28 34.85 53.77 93.16 78.8 121.59 78.8a4.58 4.58 0 110 9.15zM1378.15 662.87a4.57 4.57 0 01-3.29-7.75c9-9.37 10.83-13.89 10.75-16-.07-1.84-1.83-3.49-4.92-6.25-4.39-3.92-10.4-9.28-12.22-19.33-3.26-20.58 4.94-48.61 5.29-49.79a4.57 4.57 0 118.77 2.59c-.08.27-8 27.25-5 45.67 1.25 6.85 5.34 10.5 9.3 14 3.81 3.4 7.75 6.92 8 12.74.23 6-3.75 12.81-13.31 22.72A4.56 4.56 0 011378.15 662.87zM1262.08 510.51a4.58 4.58 0 01-2.72-8.26c.34-.25 34-24.41 68.41-2.23a4.58 4.58 0 11-5 7.69c-29-18.71-56.87 1.07-58 1.92A4.51 4.51 0 011262.08 510.51z"></path><path fill="#56302a" d="M1269.48 845.69h-.28a4.57 4.57 0 01-4.3-4.84c1.39-23 .65-52.79-.14-66.2a4.57 4.57 0 119.13-.54c.8 13.63 1.55 43.95.15 67.29A4.58 4.58 0 011269.48 845.69zM1476.94 845.13a4.58 4.58 0 01-4.57-4.32 511 511 0 01.71-60.64 4.58 4.58 0 019.12.83 498.14 498.14 0 00-.69 59.29 4.58 4.58 0 01-4.31 4.83z"></path><path fill="#56302a" fill-rule="evenodd" d="M1285.91,583.67c0-9.33,6.22-16.58,14.51-16.58s14.51,7.25,14.51,16.58-6.22,16.58-14.51,16.58A16.75,16.75,0,0,1,1285.91,583.67Z"></path><path fill="#56302a" d="M1222.69,670.12a4.29,4.29,0,0,1-.94-.1c-28.81-6.06-45.89-21.75-52.22-48-5.28-19.92-.69-39,12-49.61,12.22-10.26,30.19-11.08,49.31-2.25a4.58,4.58,0,0,1-3.83,8.31c-16-7.39-30.07-7-39.59.94-9.93,8.35-13.38,23.81-9,40.37,5.44,22.53,20.23,36,45.23,41.26a4.57,4.57,0,0,1-.94,9Z"></path><path fill="#56302a" d="M1212.33,625.55a4.58,4.58,0,0,1-3.88-2.14c0-.08-4.83-7.61-11.22-12.18a4.58,4.58,0,1,1,5.32-7.45c7.9,5.65,13.42,14.41,13.65,14.78a4.56,4.56,0,0,1-1.45,6.29A4.47,4.47,0,0,1,1212.33,625.55Z"></path><path fill="#56302a" fill-rule="evenodd" d="M1438.26,583.67c0-9.33,6.22-16.58,14.51-16.58s14.51,7.25,14.51,16.58-6.22,16.58-14.51,16.58C1445.51,600.25,1438.26,593,1438.26,583.67Z"></path><path fill="#56302a" d="M1531.53,667a4.57,4.57,0,0,1-.94-9c25-5.26,39.79-18.73,45.21-41.16,4.41-16.65,1-32.12-9-40.46-9.53-8-23.59-8.34-39.59-1a4.58,4.58,0,1,1-3.84-8.31c19.13-8.83,37.1-8,49.31,2.25C1585.39,580,1590,599,1584.67,619c-6.3,26.12-23.38,41.81-52.19,47.87A4.45,4.45,0,0,1,1531.53,667Z"></path><path fill="#56302a" d="M1541.89 622.44a4.56 4.56 0 01-3.87-7c.23-.37 5.76-9.13 13.66-14.77a4.57 4.57 0 115.32 7.44c-6.4 4.57-11.18 12.11-11.22 12.18A4.59 4.59 0 011541.89 622.44zM1435.94 521.89a31.85 31.85 0 01-17.25-5.41 4.58 4.58 0 014.94-7.71 23.42 23.42 0 0012.43 4c4.43 0 7.4-1.61 11.16-3.61a39.9 39.9 0 0111.63-4.58c8.55-1.67 17.92.41 27.83 6.19a4.58 4.58 0 01-4.61 7.91c-7.94-4.64-15.18-6.36-21.46-5.12a31.75 31.75 0 00-9.09 3.67c-4.09 2.18-8.72 4.65-15.4 4.69zM1376.07 830.76a4.58 4.58 0 010-9.15c28.45 0 86.75-25 121.57-78.75 16.8-25.19 24.28-59.81 30.88-90.36l1.65-7.62a4.58 4.58 0 118.95 2l-1.66 7.61c-6.77 31.34-14.45 66.86-32.17 93.45C1468.25 805 1407.42 830.76 1376.07 830.76zM1375.17 727.09a131.54 131.54 0 01-49.52-9.63 4.57 4.57 0 113.43-8.48 123.23 123.23 0 0096.93-2 4.58 4.58 0 013.77 8.34 133.56 133.56 0 01-53 11.76zM1225.8 510.52a4.58 4.58 0 01-1.29-9c21.65-6.37 28-27.11 34.62-49.06 8.07-26.54 17.22-56.6 58.08-54.76a4.57 4.57 0 01-.42 9.14c-33.78-1.55-40.78 21.55-48.9 48.28-7.08 23.31-14.41 47.42-40.8 55.18A4.48 4.48 0 011225.8 510.52zM1183.3 574.77a4.56 4.56 0 01-4.36-3.22c-8.14-26.21-20.45-77.5-11.54-126.54a4.57 4.57 0 019 1.64c-8.56 47.12 3.39 96.78 11.27 122.19a4.56 4.56 0 01-4.37 5.93zM1530.21 492.1c-48.32 0-66.87-38.78-81.91-70.21-9.76-20.39-19-39.65-34-44.64-9-3-20.19-.95-34 6.3a4.57 4.57 0 11-4.24-8.1c16.16-8.47 29.63-10.72 41.17-6.88 18.69 6.21 28.73 27.18 39.35 49.37 16 33.51 32.67 68.15 79.84 64.78a4.58 4.58 0 01.65 9.13C1534.7 492 1532.43 492.1 1530.21 492.1zM1574 571.66a4.67 4.67 0 01-1.42-.22 4.58 4.58 0 01-2.93-5.77c27.62-84.7 23.14-147.35-13.68-191.53a4.58 4.58 0 117-5.86c58 69.55 25.89 167.91 15.35 200.23A4.57 4.57 0 011574 571.66zM1337.73 386.15a4.58 4.58 0 01-4.41-3.35c-2.56-9.24-.62-20.32 5.34-30.42 7.11-12.05 18.76-21 31.17-24a4.57 4.57 0 112.12 8.9c-10 2.39-19.54 9.76-25.41 19.72-4.7 8-6.31 16.47-4.4 23.32A4.58 4.58 0 011339 386 4.72 4.72 0 011337.73 386.15zM1574.12 349c-19.41 0-33.77-13.69-52.09-31.14-12.47-11.89-26.61-25.36-45.89-38.21-35.65-23.41-78.36-31.93-117.15-23.37-28.82 6.37-51.93 21.53-65 42.7a4.58 4.58 0 11-7.78-4.82c14.44-23.29 39.6-39.91 70.86-46.81 41.19-9.1 86.45-.11 124.17 24.67 20 13.31 34.41 27.07 47.15 39.21 22.72 21.65 36.42 34.71 60.66 25.62a4.58 4.58 0 013.22 8.57A51.54 51.54 0 011574.12 349zM1156.36 428.64a4.58 4.58 0 01-1.48-8.91c16.78-5.71 21.85-23 27.72-43 8.5-29 19.08-65.07 71.34-75.27a4.57 4.57 0 111.75 9c-46.8 9.14-55.7 39.5-64.31 68.86-6.31 21.54-12.28 41.88-33.55 49.14A4.71 4.71 0 011156.36 428.64zM1537.75 549.9c-23.2 0-33.87-38.41-36.58-50.19a4.57 4.57 0 018.91-2c3.7 16 13.68 43.09 27.67 43.09a4.58 4.58 0 110 9.15zM1225.8 552a4.58 4.58 0 01-1.47-8.91c.69-.24 16-5.78 18.7-25.3a4.57 4.57 0 119.06 1.24c-3.45 25.33-24 32.45-24.85 32.74A4.52 4.52 0 011225.8 552zM1411.64 537.46a4.62 4.62 0 01-2.15-.53c-17.59-9.37-17.79-23.4-17.79-24a4.58 4.58 0 019.15-.06c0 .5.52 9.36 12.94 16a4.57 4.57 0 01-2.15 8.61zm-10.79-24.52h0zM1375.88 569.26H1374l-2 0a4.58 4.58 0 01-4.47-4.68 4.46 4.46 0 014.67-4.47l1.85 0c17.77.19 28.52-2.61 39.86-5.59 10.63-2.8 21.62-5.68 38.85-6.37a192.32 192.32 0 0170.37 10.79 4.57 4.57 0 11-3 8.65 183.08 183.08 0 00-67-10.29c-16.22.64-26.73 3.4-36.89 6.07C1405.24 566.26 1393.83 569.26 1375.88 569.26z"></path><path fill="#56302a" d="M1462.07,641.35H1440.5c-29.33,0-53.19-20.54-53.19-45.78L1387,588a4.57,4.57,0,1,1,9.13-.4l.35,7.73c0,20.4,19.76,36.83,44,36.83h21.57c24.28,0,44-16.54,44-36.87V571.64a4.58,4.58,0,0,1,9.15,0v23.69C1515.26,620.71,1491.4,641.35,1462.07,641.35Z"></path><path fill="#56302a" d="M1391.59 593.68a4.59 4.59 0 01-4.53-4c-.94-7.33-4.9-11.08-11.77-11.16a4.58 4.58 0 010-9.15h.05c11.47.13 19.23 7.28 20.75 19.15a4.56 4.56 0 01-4 5.12A5.85 5.85 0 011391.59 593.68zM1510.69 576.22a4.57 4.57 0 01-1.85-8.76 31.94 31.94 0 018.28-2.3v-1.42a4.58 4.58 0 119.15 0v5.62a4.58 4.58 0 01-1.36 3.26 4.41 4.41 0 01-3.27 1.32h0a25.38 25.38 0 00-9.11 1.89A4.65 4.65 0 011510.69 576.22zM1371.61 569.26c-17.95 0-29.36-3-40.41-5.9-10.15-2.67-20.66-5.43-36.89-6.07a183.15 183.15 0 00-67 10.29 4.57 4.57 0 11-3-8.65 192.43 192.43 0 0170.36-10.79c17.23.69 28.23 3.57 38.86 6.37 11.34 3 22 5.81 39.86 5.59l1.85 0a4.58 4.58 0 11.19 9.15l-1.94 0z"></path><path fill="#56302a" d="M1307,641.35h-21.56c-29.33,0-53.19-20.64-53.19-46V571.64a4.58,4.58,0,0,1,9.15,0v23.69c0,20.33,19.75,36.87,44,36.87H1307c24.29,0,44-16.43,44-36.63l.34-7.93a4.57,4.57,0,1,1,9.14.4l-.34,7.73C1360.18,620.81,1336.32,641.35,1307,641.35Z"></path><path fill="#56302a" d="M1355.89 593.68a5.65 5.65 0 01-.58 0 4.57 4.57 0 01-4-5.12c1.93-15 13-19.72 22.69-19.09a4.57 4.57 0 11-.6 9.13c-5.22-.33-11.75 1.31-13 11.12A4.59 4.59 0 011355.89 593.68zM1236.8 576.22a4.65 4.65 0 01-1.84-.39 26.52 26.52 0 00-9.12-1.89h0a4.59 4.59 0 01-4.59-4.58v-5.62a4.58 4.58 0 119.15 0v1.42a32 32 0 018.28 2.3 4.57 4.57 0 01-1.85 8.76z"></path></svg>