<svg xmlns="http://www.w3.org/2000/svg" enable-background="new 0 0 3000 3000" viewBox="0 0 3000 3000" id="human-resources"><path fill="#eaeaf4" d="M323,2363.2l2337.4-5.9c0,0,77.2,53-72.3,109.1s-371.6-41.3-382.3,82.3c-18.8,217-298,99.9-476.3,52.7
		c-178.3-47.2-205.5-93.3-805.8-29.4C500.7,2617,289.7,2511.3,323,2363.2z"></path><path fill="#d6d3ef" d="M805.7 2380.2c-40.6 28.3 562.9 80.4 675 50.7 112.1-29.7 111.5 54.2 216.7 38.5 105.2-15.7 259.8-104.7 196.6-106.1C1830.7 2361.8 840.6 2355.7 805.7 2380.2zM1923.6 2600.9c102.8 31.4 170.5 38.4 192.2-3.3 21.6-41.8 61.6-60.1 44.4-82.7-13.3-17.5-107.4 30.9-145.4 43.4C1976.7 2570.8 1813.9 2567.4 1923.6 2600.9z" opacity=".5"></path><path fill="#8eaae4" d="M325.7 2363.2V949h381v590.4h392.6V949h381v1414.2h-381V1860H706.7v503.2H325.7zM1609.1 949h587c260.5 0 460.7 176.5 460.7 456.5 0 188.7-101.1 353-264.4 420l-48.6 18.3 330.4 519.4H2270l-279.9-604.6v604.6h-381V949zM1990.1 1598.3h101.1c99.1 0 182.7-77.1 182.7-190.7 0-117.7-87.5-184.6-182.7-184.6h-101.1V1598.3z"></path><path fill="#d6d3ef" d="M1420.1,589.5v-53.3l-41.9-3.8c-3.9-18.5-11.2-35.7-21.3-51l27-32.3l-37.8-37.7l-32.4,26.9
		c-15.4-10-32.7-17.4-51.2-21.2l-3.9-41.7H1205l-3.8,41.7c-18.6,3.9-35.9,11.2-51.3,21.2l-32.4-26.9l-37.8,37.7l27,32.3
		c-10.1,15.3-17.4,32.5-21.3,51l-41.9,3.8v53.3l41.9,3.8c3.9,18.5,11.2,35.7,21.3,51l-27,32.3l37.8,37.7l32.4-26.8
		c0.4,0.2,0.8,0.5,1.2,0.8c15.1,9.6,31.9,16.7,50.1,20.4l0.7,42h59.9l0.7-42c8.4-1.7,16.4-4.2,24.2-7.2c5.1-2,10.1-4.3,14.9-6.9
		c4.2-2.2,8.2-4.6,12.1-7.1l32.4,26.8l37.8-37.7l-27-32.3c10.1-15.3,17.4-32.5,21.3-51L1420.1,589.5z M1231.7,656.8
		c-52.1,0-94.3-42-94.3-93.9c0-51.8,42.2-93.8,94.3-93.8c52.1,0,94.3,42,94.3,93.8C1326,614.8,1283.8,656.8,1231.7,656.8z"></path><path fill="#d6d3ef" d="M1568.3 726.3v-28l-22-2c-2-9.7-5.9-18.8-11.2-26.8l14.2-17-19.9-19.8-17 14.1c-8.1-5.3-17.1-9.1-26.9-11.1l-2-21.9h-28.1l-2 21.9c-9.8 2-18.8 5.9-26.9 11.1l-17-14.1-19.9 19.8 14.2 17c-5.3 8-9.2 17.1-11.2 26.8l-22 2v28l22 2c2 9.7 5.9 18.8 11.2 26.8l-14.2 17 19.9 19.8 17-14.1c.2.1.4.3.6.4 7.9 5.1 16.8 8.8 26.3 10.7l.3 22.1h31.4l.3-22.1c4.4-.9 8.6-2.2 12.7-3.8 2.7-1.1 5.3-2.3 7.8-3.6 2.2-1.1 4.3-2.4 6.4-3.7l17 14.1 19.9-19.8-14.2-17c5.3-8 9.2-17.1 11.2-26.8L1568.3 726.3zM1469.3 761.7c-27.3 0-49.5-22.1-49.5-49.3 0-27.2 22.2-49.3 49.5-49.3 27.4 0 49.5 22.1 49.5 49.3C1518.8 739.6 1496.7 761.7 1469.3 761.7zM1231.7 494.5c-37.4 0-67.6 30.7-67.6 68.5 0 37.8 30.3 68.5 67.6 68.5 37.3 0 67.6-30.6 67.6-68.5C1299.3 525.2 1269 494.5 1231.7 494.5zM1231.7 600.2c-20.3 0-36.8-16.7-36.8-37.2 0-20.5 16.5-37.2 36.8-37.2 20.3 0 36.7 16.7 36.7 37.2C1268.5 583.5 1252 600.2 1231.7 600.2z"></path><path fill="#8eaae4" d="M1203.1,556.7c1.2-0.7,14.2-12.6,14.2-12.6l15,16.9l35.9-33.4l13.9,11.8l-49.4,47.8L1203.1,556.7z"></path><path fill="#d6d3ef" d="M1404.4 836.2c0 0-64.5-37.5-78.3-77.5C1326.1 758.7 1319.3 820.1 1404.4 836.2zM1225.8 325.9c0 0 72.9 15.7 98.4 49.4C1324.2 375.3 1311.7 314.9 1225.8 325.9z"></path><g><path fill="#6a96df" d="M1093.2,949v186.1h32.9c15.2,0,27.5-12.3,27.5-27.4V949H1093.2z" opacity=".5"></path><path fill="#d6d3ef" d="M2219.4,460.2H1976c-10.9,0-19.8,8.8-19.8,19.7v290.4c0,10.9,8.9,19.7,19.8,19.7h243.4
			c10.9,0,19.8-8.8,19.8-19.7V479.9C2239.2,469.1,2230.3,460.2,2219.4,460.2z"></path><path fill="#6a96df" d="M2127.4,544.4c3.6,2.9,26.3,77,65,95c38.7,18,42,46.5,23.9,55.2c-18.1,8.7-133.6-22.2-172.6-13.3
				c-39,8.9-0.5-89,10.2-116.5C2064.6,537.5,2089.6,513.3,2127.4,544.4z"></path><path fill="#6a96df" d="M2172.4,535c0,16.8-24.2,20.7-41.3,20.7c-17.2,0-31.1-13.6-31.1-30.5c0-16.8,13.9-30.5,31.1-30.5
						C2148.2,494.7,2172.4,518.1,2172.4,535z"></path><path fill="#6a96df" d="M2017.2,565.4c-11.9-54.7,43.2-85.8,79.4-53.4c41.7,0,56.5,32.1,51.6,56.5c13.4,82.8-22.8,69.8-64.5,69.8
						c-21.8,0-41.3-9.2-55.1-23.8c-4.7,8.4-4.1,28.3-4.1,28.3C2019.8,636.8,2002,593.9,2017.2,565.4z"></path><path fill="#b2bfea" d="M2129.5,611.5l12.7,77.6c0,0-32.8,41.2-56.3,15.4l-2.4-47.3L2129.5,611.5z"></path><path fill="#6a96df" d="M2083.5,657.2l2.2,42.5c13.2-8.4,47.1-34,35.7-69c-1-3.1-2.2-5.6-3.6-7.6L2083.5,657.2z"></path><path fill="#b2bfea" d="M2022.6,572c1.7,35.6,9.6,96.4,43.6,99.1c48.2,3.8,69.3-46.7,69.3-46.7s8.9,5.5,11-3.4
						c2.1-8.8,12.7-24.4,2.1-30.3c-10.6-5.9-13.9,3.8-13.9,3.8l0.9-4.3c-46.4-1.5-46.4-20.4-59.8-38.6
						C2074,563.8,2036.7,562.7,2022.6,572z"></path><path fill="#8eaae4" d="M2110.1 625.3c.6 3.3-3.1 6.8-8.2 7.6-5.1.9-9.7-1.2-10.2-4.5-.6-3.4 3.1-6.8 8.2-7.6S2109.5 622 2110.1 625.3zM2034 625.6c-.6 3.3 3.1 6.8 8.2 7.6 5.1.9 9.7-1.2 10.2-4.5.6-3.3-3.1-6.8-8.2-7.6C2039.2 620.2 2034.6 622.3 2034 625.6z"></path><path fill="#6a96df" d="M2056.5 595.2c-.6.2-1.2.1-1.6-.4-.3-.4-7.4-8.9-20.2-2.5-.7.3-1.6.1-1.9-.6-.4-.7-.1-1.6.6-1.9 15-7.5 23.6 3.2 23.7 3.3.5.6.4 1.5-.2 2C2056.8 595.1 2056.7 595.2 2056.5 595.2zM2080 594.8c.5.3 1.2.1 1.7-.3.3-.3 8-8.4 20.3-1 .7.4 1.6.2 2-.5.4-.7.2-1.5-.5-1.9-14.4-8.6-23.8 1.5-23.9 1.6-.5.6-.5 1.5.1 2C2079.7 594.6 2079.8 594.7 2080 594.8zM2070.1 625.9c-4 0-6.2-2.2-6.3-2.3-.5-.5-.5-1.2-.2-1.7 2.2-3.5.1-12.9-.8-16.3-.2-.8.2-1.5 1-1.8.7-.2 1.5.2 1.8 1 .4 1.3 3.3 11.7 1.1 17.4 1.2.7 3.6 1.5 7.3.1.7-.3 1.6.1 1.8.8.3.7-.1 1.6-.8 1.8C2073.1 625.7 2071.5 625.9 2070.1 625.9zM2050.6 605.9c0 4.4-2.5 8-5.5 8-3 0-5.5-3.6-5.5-8 0-4.4 2.5-8 5.5-8C2048.1 597.9 2050.6 601.5 2050.6 605.9zM2100 605.9c0 4.4-2.5 8-5.5 8-3 0-5.5-3.6-5.5-8 0-4.4 2.5-8 5.5-8C2097.5 597.9 2100 601.5 2100 605.9zM2082.9 644.2c0 5-7 9.1-15.5 9.1-8.6 0-15.5-4.1-15.5-9.1 0-5 8.4-2.1 17-2.1C2077.4 642.2 2082.9 639.2 2082.9 644.2zM2109 574.5c-5.4 3.5 25.1 27.6 19.9 40.4-5.2 12.8 4.3 33.7 11.7 38.4 0 0-3.7-19.6-5.1-28.9-4.8-30.5 9.7-35.1 9.7-35.1S2121.3 566.4 2109 574.5z"></path><path fill="#b2bfea" d="M2148.2,569.3c0,0-18-46.3-51.5-57.3c0,0,27.8-7.6,48.3,22.4C2156,550.5,2148.2,569.3,2148.2,569.3z"></path><path fill="#8eaae4" d="M2226.9,790.1h-222.6c0,0,32-72.2,40.8-77.1c8.8-4.9,123.5-9.1,140.6-7.5
				C2202.9,707.1,2226.9,790.1,2226.9,790.1z"></path><path fill="#6a96df" d="M2141.3,684.2c-2,1.2-19.5,24.4-41.4,22.3l-16.5-9l-7.7,17.2c0,0,2.6,9.8,5.4,16.8c2.8,7,15.9-6.1,15.9-6.1
				s6.8,5.3,15.8,11.1c8.9,5.7,38-32.6,38-32.6L2141.3,684.2z"></path><g><path fill="#6a96df" d="M2340.4,1477.8h-253.8c-11.4,0-20.7,9.2-20.7,20.6v302.9c0,11.4,9.2,20.6,20.7,20.6h253.8
			c11.4,0,20.7-9.2,20.7-20.6v-302.9C2361.1,1487,2351.8,1477.8,2340.4,1477.8z" opacity=".5"></path><path fill="#d6d3ef" d="M2305.7,1440.1h-253.8c-11.4,0-20.7,9.2-20.7,20.6v302.9c0,11.4,9.2,20.6,20.7,20.6h253.8
			c11.4,0,20.7-9.2,20.7-20.6v-302.9C2326.3,1449.3,2317.1,1440.1,2305.7,1440.1z"></path><path fill="#6a96df" d="M2133.3,1495.3c0,0-0.3-13.8,29.6-17.3c29.9-3.5,74,53.5,87.2,74.6c13.2,21.1-2.3,21.1-2.3,21.1
						s17.7,36.2,11.6,52.5c-6.1,16.3-40.8,13.1-40.8,13.1s17.9,2.9,11.5,11.8c-6.4,9-34.7,9-34.7,9s13.8,7.4,1.6,13.1
						c-12.2,5.8-60.8,0-74-23.7s-45.4-20.5-37.6-54.4c7.7-33.9,14.2-39.1,14.2-39.1S2087.3,1494.7,2133.3,1495.3z"></path><path fill="#b2bfea" d="M2211.9,1597.8l13.2,81c0,0-34.2,43-58.7,16l-2.5-49.3L2211.9,1597.8z"></path><path fill="#6a96df" d="M2164,1645.5l2.3,44.4c13.7-8.7,49.1-35.5,37.2-71.9c-1.1-3.2-2.3-5.9-3.7-8L2164,1645.5z"></path><path fill="#b2bfea" d="M2100.5,1556.6c1.8,37.2,10,100.6,45.4,103.3c50.2,3.9,72.3-48.7,72.3-48.7s9.2,5.7,11.5-3.5
						c2.2-9.2,13.2-25.5,2.2-31.6c-11-6.1-14.5,4-14.5,4l1-4.5c-48.4-1.6-48.4-21.3-62.3-40.2
						C2154.1,1548.1,2115.1,1546.9,2100.5,1556.6z"></path><path fill="#6a96df" d="M2135.9 1580.8c-.6.2-1.3.1-1.7-.5-.3-.4-7.7-9.3-21-2.6-.7.4-1.6.1-2-.7-.4-.7-.1-1.6.7-2C2127.4 1567.3 2136 1580.8 2135.9 1580.8zM2183.2 1578.9c.7.4 1.6.2 2-.5.4-.7.2-1.6-.5-2-15-8.9-25.4 3.2-24.8 3.7C2160 1580.2 2170.3 1571.3 2183.2 1578.9zM2150 1612.9c-4.2 0-6.5-2.2-6.6-2.4-.5-.5-.6-1.2-.2-1.8 2.3-3.7.2-13.5-.8-17-.2-.8.2-1.6 1-1.8.8-.2 1.6.2 1.8 1 .4 1.3 3.4 12.2 1.1 18.1 1.2.7 3.8 1.6 7.6.1.8-.3 1.6.1 1.9.9.3.8-.1 1.6-.9 1.9C2153.1 1612.6 2151.4 1612.9 2150 1612.9zM2129.6 1592c0 4.6-2.6 8.3-5.7 8.3-3.2 0-5.7-3.7-5.7-8.3 0-4.6 2.6-8.3 5.7-8.3C2127.1 1583.6 2129.6 1587.4 2129.6 1592zM2181.2 1592c0 4.6-2.6 8.3-5.7 8.3-3.2 0-5.7-3.7-5.7-8.3 0-4.6 2.6-8.3 5.7-8.3C2178.6 1583.6 2181.2 1587.4 2181.2 1592zM2157.3 1632c0 5.2-4.6 9.5-10.2 9.5-5.6 0-10.2-4.2-10.2-9.5 0-5.2 5.5-2.2 11.2-2.2C2153.7 1629.8 2157.3 1626.7 2157.3 1632zM2190.6 1559.2c-5.6 3.7 26.2 28.8 20.7 42.1-5.4 13.3 4.4 35.1 12.2 40.1 0 0-3.8-20.5-5.3-30.2-5-31.8 10.1-36.6 10.1-36.6S2203.4 1550.8 2190.6 1559.2z"></path><path fill="#8eaae4" d="M2313.5,1784.1h-232.2c0,0,33.4-75.3,42.6-80.4c9.2-5.1,128.8-9.5,146.7-7.8
				C2288.5,1697.6,2313.5,1784.1,2313.5,1784.1z"></path><path fill="#6a96df" d="M2224.3,1673.6c-2.1,1.3-20.3,25.4-43.1,23.3l-17.2-9.4l-8.1,17.9c0,0,2.7,10.3,5.6,17.5
				c2.9,7.3,16.6-6.4,16.6-6.4s7.1,5.6,16.4,11.5c9.3,6,39.7-34,39.7-34L2224.3,1673.6z"></path></g><g><path fill="#d6d3ef" d="M854.5,764.2h249.2c11.2,0,20.3,9,20.3,20.2v297.4c0,11.1-9.1,20.2-20.3,20.2H854.5c-11.2,0-20.3-9-20.3-20.2
			V784.3C834.3,773.2,843.3,764.2,854.5,764.2z"></path><path fill="#8eaae4" d="M862.8,1101.9h228c0,0-32.8-73.9-41.8-78.9c-9-5-126.4-9.3-144-7.7C887.4,1016.9,862.8,1101.9,862.8,1101.9z
				"></path><path fill="#b2bfea" d="M963.2,949.4l-8.5,55.8c0,0,27.4,33.1,51.4,1.5l-10.7-54.9L963.2,949.4z"></path><path fill="#6a96df" d="M958.9,977.9c5.6,4.8,14.8,12,20.2,12.5c7.2,0.7,15.8-4.2,21.1-13.6l-4.9-24.9l-32.1-2.5L958.9,977.9z"></path><path fill="#6a96df" d="M899,884.9c-2.1-6.2,0.5-13,3.7-18.6c3.3-5.7,7.3-11.2,8.3-17.6c0.9-5.3-0.4-10.7-0.9-16.1
							c-0.4-5.4,0.4-11.4,4.3-15c2.2-2,5.1-3.1,8-3.6c4.2-0.8,8.5-0.6,12.6,0.4c4.3,1.1,8.9,3.3,13.1,1.9c3.5-1.2,5.8-4.5,8.3-7.3
							c4.7-5.2,11.1-9.1,18-10c7-0.9,14.4,1.4,19.1,6.7c2,2.2,3.5,4.9,5.5,7.1c6,6.4,15.6,7.4,24.3,9c8.6,1.6,18.4,5.6,20.6,14.1
							c1.7,6.5-1.5,13.9,1.5,19.9c2.1,4.2,6.7,6.5,9.8,10c4.2,4.9,5.1,12.7,1.4,17.9c-4.4,6.1-13.4,7.6-17.1,14.2
							c-2.8,5.1-1.4,11.3-1.6,17.1c-0.3,8.5-4.6,16.7-11.3,21.9l2-2.1c-11.5,9.9-25.3,17.2-40,21c-7.3,1.9-15,3-22.4,1.6
							c-10.6-2-19.7-8.9-29.9-12.4c-7.8-2.6-2.2-11.3-6.5-18.3c-5.5-9-13.7-13.9-17.8-23.6C909.1,896,901.4,892,899,884.9z"></path><path fill="#b2bfea" d="M1023.6,898c0,0,7.5-7.1,18.2-2.5c11.7,5-2.6,34.8-10.1,34.9c-7.3,0.1-8.7-3.9-8.7-9.5
								C1023.1,911.3,1023.6,898,1023.6,898z"></path><path fill="#6a96df" d="M1028,930.1c-3.5-15.4,0.8-29.4,3.3-35.7c-4.8,1-7.7,3.7-7.7,3.7s-0.5,13.2-0.6,22.9
								C1023,925.5,1023.9,928.9,1028,930.1z" opacity=".35"></path><path fill="#6a96df" d="M1035.8,901.2c-3.5,2.4-10,10.9-6.3,17.7c0,0,0.2-4.5,2.7-7.1l6.1-2.5l-5.9-0.7L1035.8,901.2z"></path><path fill="#b2bfea" d="M929.6,899.9c0,0-7.8-6.8-18.3-1.8c-11.5,5.4,3.9,34.6,11.5,34.5c7.3-0.1,8.6-4.2,8.3-9.8
								C930.6,913.1,929.6,899.9,929.6,899.9z"></path><path fill="#6a96df" d="M926.4,932c2.9-15.6-1.9-29.3-4.7-35.6c4.8,0.8,7.9,3.4,7.9,3.4s1,13.2,1.5,22.9
								C931.2,927.3,930.5,930.8,926.4,932z" opacity=".35"></path><path fill="#6a96df" d="M917.5,903.5c3.6,2.3,10.5,10.5,7,17.5c0,0-0.3-4.5-2.9-7l-6.2-2.2l5.9-0.9L917.5,903.5z"></path><path fill="#b2bfea" d="M925,894c1.9,11.5,6.4,87.4,56.7,86.4c56.4-1.1,43.7-115,43.7-115c0-0.3,0-0.6-0.1-0.9
							c-3.8,3.4-7.5,6.7-9.2,9.3c-6.1,9.4-27.8,13.8-46.3,5C954.7,871.8,934.9,889,925,894z"></path><g><path fill="#6a96df" d="M960.2 932.7c.5 3-2.9 6.1-7.5 6.8-4.6.7-8.7-1.2-9.2-4.2-.5-3 2.9-6.1 7.5-6.8C955.6 927.8 959.7 929.7 960.2 932.7zM994.2 932.5c-.4 3 3 6 7.6 6.6 4.6.6 8.7-1.4 9-4.4.4-3-3-6-7.6-6.6C998.6 927.5 994.6 929.5 994.2 932.5z" opacity=".35"></path><path fill="#6a96df" d="M981.2 930.2c-.3-2.3-1.4-4.1-1.5-4.2-.5-.8-1.6-1-2.4-.5-.8.5-1 1.5-.5 2.3l0 0c0 0 2 3.2.5 5.5-.5.8-.3 1.8.5 2.4.8.5 1.8.3 2.4-.5C981.2 933.5 981.4 931.8 981.2 930.2zM990.9 905c.4 0 .8-.2 1.1-.4.1-.1 7.6-6.8 18.2-4.4.9.2 1.8-.4 2-1.3.2-.9-.4-1.8-1.3-2-12.3-2.8-20.9 4.9-21.2 5.2-.7.6-.7 1.7-.1 2.4C990 904.8 990.5 905 990.9 905zM962.7 905.6c-.4 0-.8-.1-1.1-.4-.1-.1-7.8-6.6-18.3-4-.9.2-1.8-.3-2.1-1.2-.2-.9.3-1.8 1.2-2.1 12.2-3.1 21 4.4 21.4 4.7.7.6.8 1.7.2 2.4C963.6 905.4 963.1 905.6 962.7 905.6zM997.8 918.5c.1 2.3 1.9 4.1 3.9 4 2.1-.1 3.7-2 3.6-4.3-.1-2.3-1.9-4.1-3.9-4C999.3 914.3 997.7 916.2 997.8 918.5zM965.7 957.2c.2 6.1 6.4 10.8 13.7 10.5 7.3-.3 13.1-5.5 12.8-11.6-.2-6.1-6.6-.6-13.9-.3C971 956.1 965.4 951.1 965.7 957.2z"></path><g><path fill="#6a96df" d="M956.5,917.8c0.1,2.3-1.5,4.2-3.6,4.3c-2.1,0.1-3.8-1.7-3.9-4c-0.1-2.3,1.5-4.2,3.6-4.3
									C954.6,913.7,956.4,915.5,956.5,917.8z"></path></g></g><path fill="#f2faff" d="M998.5,900.8c-10.2,0-18.5,7.5-19.9,17.2c-1.4-9.7-9.8-17.2-19.9-17.2c-11.1,0-20.1,9-20.1,20.1
							c0,11.1,9,20.1,20.1,20.1c10.1,0,18.5-7.5,19.9-17.2c1.4,9.8,9.7,17.2,19.9,17.2c11.1,0,20.1-9,20.1-20.1
							C1018.6,909.9,1009.6,900.8,998.5,900.8z M958.7,935.4c-8,0-14.4-6.4-14.4-14.4c0-7.9,6.4-14.4,14.4-14.4
							c7.9,0,14.4,6.5,14.4,14.4C973.1,928.9,966.7,935.4,958.7,935.4z M998.5,935.4c-8,0-14.4-6.4-14.4-14.4
							c0-7.9,6.4-14.4,14.4-14.4c7.9,0,14.4,6.5,14.4,14.4C1012.9,928.9,1006.4,935.4,998.5,935.4z"></path><path fill="#6a96df" d="M956.3,995.3c0,0,12.2,19.1,25.6,16.4c13.5-2.8,22.6-13.6,22.6-13.6s15.9,19.2,16.5,21
					c0.6,1.7-14.5,14.1-19.4,19.5c-4.9,5.4-17.4-14-17.4-14s-3,10.3-13.8,14.9c-21-4.1-31.1-24.6-31.1-24.6L956.3,995.3z"></path></g></g><g><rect width="292.4" height="136.1" x="1266.1" y="2246.7" fill="#6a96df"></rect><rect width="310.2" height="109.2" x="1266.1" y="2260.1" fill="#d6d3ef"></rect><path fill="#6a96df" d="M1313.5 2289.4c0 0 185.1-7.9 238.8-1.6C1552.4 2287.8 1402 2299.2 1313.5 2289.4zM1309.6 2310.7c0 0 106-7.9 136.8-1.6C1446.4 2309.2 1360.2 2320.6 1309.6 2310.7zM1393.7 2334.2c0 0 123-7.9 158.6-1.6C1552.4 2332.6 1452.5 2344 1393.7 2334.2z"></path><rect width="441.5" height="136.1" x="837.2" y="2246.7" fill="#6a96df"></rect><g><path fill="#8eaae4" d="M946.5,2347.5c-16.2,0-29.3-14.8-29.3-33.1c0-18.3,13.1-33.1,29.3-33.1s29.3,14.8,29.3,33.1
				C975.8,2332.7,962.7,2347.5,946.5,2347.5z"></path><path fill="#6a96df" d="M946.5,2337.8c-11.4,0-20.7-10.5-20.7-23.4c0-12.9,9.3-23.4,20.7-23.4s20.7,10.5,20.7,23.4
				C967.2,2327.3,957.9,2337.8,946.5,2337.8z"></path><path fill="#8eaae4" d="M1164.6 2274.2h28.4v9h-11.8v9.3h11.8v9h-28.4v-9h10.1v-9.3h-10.1V2274.2zM1192.9 2306.1v13.9c0 6.2-3.5 10.9-9.2 10.9-3.8 0-7.1-2.4-8.4-6.3l-.4-1.2-10.4 7.8v-9.6l12.1-6.6h-12.1v-9H1192.9zM1179.9 2315.1v2.4c0 2.3 1.5 4.3 3.8 4.3 2.4 0 3.7-2.1 3.7-4.3v-2.4H1179.9zM1164.6 2334.1h28.4v11.5c0 8.8-6.2 15-14.2 15-8 0-14.2-6.1-14.2-15V2334.1zM1170 2343.2l0 1c.3 5.2 5.1 7.1 8.7 7.1 3.5 0 8.4-1.9 8.7-7.1l0-1H1170z"></path><g><rect width="43.6" height="9.9" x="1105.6" y="2288.1" fill="#8eaae4" transform="rotate(90 1127.406 2293.074)"></rect><rect width="43.6" height="9.9" x="1105.6" y="2336.7" fill="#8eaae4" transform="rotate(90 1127.406 2341.686)"></rect><rect width="61.4" height="9.9" x="1078.6" y="2297" fill="#8eaae4" transform="rotate(90 1109.255 2301.979)"></rect><rect width="25.7" height="9.9" x="1096.4" y="2345.6" fill="#8eaae4" transform="rotate(90 1109.255 2350.59)"></rect><rect width="36.2" height="9.9" x="1073" y="2284.5" fill="#8eaae4" transform="rotate(90 1091.105 2289.408)"></rect><rect width="50.9" height="9.9" x="1065.7" y="2333.1" fill="#8eaae4" transform="rotate(90 1091.104 2338.019)"></rect><rect width="43.6" height="9.9" x="1051.2" y="2288.1" fill="#8eaae4" transform="rotate(90 1072.954 2293.074)"></rect></g></g><g><rect width="239.6" height="111.5" x="1322.2" y="2140.7" fill="#b2bfea"></rect><rect width="254.1" height="89.4" x="1322.2" y="2151.7" fill="#d6d3ef"></rect><path fill="#6a96df" d="M1361 2175.7c0 0 151.7-6.5 195.7-1.3C1556.7 2174.4 1433.5 2183.7 1361 2175.7zM1357.8 2193.1c0 0 86.9-6.5 112.1-1.3C1469.9 2191.9 1399.3 2201.2 1357.8 2193.1zM1426.7 2212.3c0 0 100.7-6.5 130-1.3C1556.7 2211 1474.9 2220.4 1426.7 2212.3z"></path><rect width="361.7" height="111.5" x="970.9" y="2140.7" fill="#b2bfea"></rect><path fill="#6a96df" d="M1188.3,2221.3c-45.7-0.1-91.3-2.4-136.8-6.7c-26.6-2.5-54.2-5.3-80.7-11.6v49.2h361.7v-38.5
			C1284.7,2219.6,1236.2,2221.4,1188.3,2221.3z" opacity=".2"></path><g><path fill="#8eaae4" d="M1060.3,2223.3c-13.3,0-24-12.2-24-27.2c0-15,10.7-27.2,24-27.2c13.3,0,24,12.2,24,27.2
				C1084.4,2211.1,1073.6,2223.3,1060.3,2223.3z"></path><path fill="#6a96df" d="M1060.3,2215.4c-9.4,0-17-8.6-17-19.2c0-10.6,7.6-19.2,17-19.2c9.4,0,17,8.6,17,19.2
				C1077.3,2206.8,1069.7,2215.4,1060.3,2215.4z"></path><path fill="#8eaae4" d="M1239 2163.2h23.2v7.4h-9.7v7.6h9.7v7.4H1239v-7.4h8.3v-7.6h-8.3V2163.2zM1262.3 2189.4v11.4c0 5.1-2.9 8.9-7.5 8.9-3.1 0-5.8-2-6.9-5.1l-.3-.9-8.5 6.4v-7.8l9.9-5.4h-9.9v-7.4H1262.3zM1251.6 2196.8v2c0 1.9 1.3 3.5 3.1 3.5 1.9 0 3-1.7 3-3.5v-2H1251.6zM1239 2212.3h23.2v9.4c0 7.2-5.1 12.3-11.6 12.3-6.5 0-11.6-5-11.6-12.3V2212.3zM1243.5 2219.7l0 .8c.2 4.3 4.2 5.8 7.1 5.8 2.9 0 6.9-1.6 7.1-5.8l0-.8H1243.5z"></path><g><rect width="35.7" height="8.1" x="1190.7" y="2174.6" fill="#8eaae4" transform="rotate(90 1208.567 2178.678)"></rect><rect width="35.7" height="8.1" x="1190.7" y="2214.5" fill="#8eaae4" transform="rotate(90 1208.566 2218.501)"></rect><rect width="50.3" height="8.1" x="1168.6" y="2181.9" fill="#8eaae4" transform="rotate(90 1193.697 2185.973)"></rect><rect width="21.1" height="8.1" x="1183.2" y="2221.7" fill="#8eaae4" transform="rotate(90 1193.697 2225.796)"></rect><rect width="29.7" height="8.1" x="1164" y="2171.6" fill="#8eaae4" transform="rotate(90 1178.828 2175.675)"></rect><rect width="41.7" height="8.1" x="1158" y="2211.5" fill="#8eaae4" transform="rotate(90 1178.828 2215.498)"></rect><rect width="35.7" height="8.1" x="1146.1" y="2174.6" fill="#8eaae4" transform="rotate(90 1163.959 2178.678)"></rect></g></g></g><g><path fill="#b2bfea" d="M1511.1,1641.4c0,0-31.6,57.9-33.9,88.8c-2.3,30.8-20.4,53.5-20.4,53.5l-29.3,2.8l16.5,23.5
			c-35.7,47.7-99.1,46.9-114.6,46c-2.3-0.1-3.5-0.2-3.5-0.2c-41.5-60.6,30.9-123.2,78.6-166.6
			C1452.4,1645.7,1511.1,1641.4,1511.1,1641.4z"></path><path fill="#6a96df" d="M1456,1683.2c-135.5,128.4-150.2,216.6-168.2,395l-0.4,0c7.9-175,36-274.3,168.3-395.3L1456,1683.2z"></path><path fill="#b2bfea" d="M1127.7,1742.9c0,0,22.4,41,24,62.9c1.6,21.8,14.4,38,14.4,38l20.8,2l-11.7,16.6
			c25.3,33.8,70.3,33.3,81.2,32.6c1.6-0.1,2.5-0.2,2.5-0.2c29.4-43-21.9-87.4-55.8-118.1C1169.3,1745.9,1127.7,1742.9,1127.7,1742.9
			z"></path><path fill="#6a96df" d="M1166.8,1772.5c96,91,106.5,153.6,119.2,280l0.3,0c-5.6-124.1-25.5-194.5-119.3-280.2L1166.8,1772.5z"></path><path fill="#b2bfea" d="M1375.7,1540.5c0,0-13.4,60.8-7.3,89.4c6.1,28.5-4.3,53.9-4.3,53.9l-25.8,10.2l21.2,16.9
			c-19.7,52.6-77.5,68.7-91.7,71.9c-2.1,0.5-3.2,0.7-3.2,0.7c-53.6-44-4.5-119.8,27.4-171.8
			C1323.7,1559.9,1375.7,1540.5,1375.7,1540.5z"></path><path fill="#6a96df" d="M1336.8,1593c-88.9,152.1-79.1,236-48.3,402.4l-0.4,0.1c-39-160.7-39.7-258.2,48.3-402.7L1336.8,1593z"></path><polygon fill="#b2bfea" points="1306.8 2133.5 1259.9 2133.5 1247.8 1942.7 1318.8 1942.7"></polygon><path fill="#6a96df" d="M1314.9 1948.9h-63.1c-11.8 0-21.4-9.6-21.4-21.4l0 0h105.9l0 0C1336.3 1939.3 1326.7 1948.9 1314.9 1948.9zM1318.8 2140.7L1318.8 2140.7c0-7.9-6.4-14.3-14.3-14.3h-42.3c-7.9 0-14.3 6.4-14.3 14.3v0H1318.8z"></path><path fill="#6a96df" d="M1295.5,1957.9c2.1-1.9,12.7,0,12.7,0s-7.3,161.4-8.2,161.1C1299,2118.7,1292,1961.1,1295.5,1957.9z" opacity=".5"></path></g></g><g><path fill="#1a4675" d="M1494.6,1015.3L1617,848.8l13.9-8.7l-44.6,239.3c0,0-49.9,107.4-88.3,74.2
				C1471.4,1130.5,1494.6,1015.3,1494.6,1015.3z"></path><path fill="#dbd8c7" d="M1185.1,896.3c-0.4-2.9,9.2-5.1,9.2-5.1s-4-4.1-0.2-8.1c2.3-2.3,7.1-2.2,7.1-2.2s-4.4-5.4-0.6-10.4
								c3.8-5,10.2-1.9,10.2-1.9s-4.7-9,4.5-12c6.4-2.1,9.1-1.5,12.7,1.5c6.7,0.5,19.4,3.3,23.3,6.5c6.7,5.5,10.2,16.7,9.7,25.9
								c7.6,5.1,18.6,13.3,18.6,13.3l-26.2,35.7l-17.6-10.5l-36.7-16.6C1199.3,912.3,1187.2,902.4,1185.1,896.3z"></path><path fill="#1a4675" d="M1235.8,825.6l-5.9,118.4c-0.2,3.8-3.4,6.7-7.2,6.5l0,0c-3.8-0.2-6.7-3.4-6.5-7.2l5.9-118.4
									L1235.8,825.6z"></path><path fill="#1e3560" d="M1235.8,825.6l-5.9,118.4c-0.2,3.8-3.4,6.7-7.2,6.5c-2.4-0.1-4.5-1.5-5.6-3.4c6.7,0.9,7.9-4.9,7.9-4.9
									l5.4-107.5l-8.6-1.7l0.4-8L1235.8,825.6z"></path><path fill="#21254c" d="M1233.7 840.2l-10.8-.5c-3.7-.2-6.9 2.7-7.1 6.4l-4.6 89.8c-.2 3.7 2.7 6.9 6.4 7l10.8.5c3.7.2 6.9-2.7 7.1-6.4l4.6-89.8C1240.3 843.5 1237.4 840.3 1233.7 840.2zM1305.7 760.2c1.9-40.7-29.8-75.4-70.7-77.3-40.9-2-75.7 29.5-77.5 70.3-1.9 40.8 29.8 75.4 70.8 77.3C1269.2 832.4 1303.8 801 1305.7 760.2zM1229 813.8c-31.7-1.5-56.2-28.3-54.8-59.8 1.4-31.5 28.3-55.9 60-54.4 31.7 1.5 56.2 28.3 54.7 59.9C1287.6 791 1260.7 815.3 1229 813.8z"></path><path fill="#dbd8c7" d="M1208.9,907c3.1-6.4-4.2-9.3-4.2-9.3s9.4,6.1,12.6-0.7c3.3-7.1-8.1-12.8-8.1-12.8s13.3,5.5,17.2,0.2
								c3-4.2-9.1-14.4-9.1-14.4s11.3,5.6,15.1,0.2c4.1-5.8-4.2-12.2-4.2-12.2l-22.6-8.4c0,0-8.4,9.3-5.9,11.3
								c2.3,1.8,5.4,2.9,5.4,2.9s-3.3-0.9-5.8-0.3c-1.6,0.4-5.1,7.1-4.7,8.7c0.5,2.3,2.1,3.9,2.1,3.9s-2.5-0.7-4.6,0.5
								c-1.2,0.7-3.9,6.5-3.8,7.7c0.1,2.3,1.6,4.1,1.6,4.1s-3.4,1.6-4.7,6.2C1183.6,899.8,1206.3,912.2,1208.9,907z"></path><path fill="#c1bfac" d="M1225.8 876.1c-.4.6-3.8-1-7.7-3.5-3.9-2.5-6.8-5-6.4-5.5.4-.6 3.8 1 7.7 3.5C1223.3 873 1226.2 875.5 1225.8 876.1zM1214.5 887.2c-.4.6-3-.4-5.8-2.3s-4.8-3.8-4.5-4.3c.4-.6 3 .4 5.8 2.3C1212.8 884.7 1214.8 886.7 1214.5 887.2zM1209.4 900.5c-.4.6-3.3-.6-6.6-2.7-3.3-2.1-5.7-4.2-5.3-4.8.4-.6 3.3.6 6.6 2.7C1207.3 897.7 1209.7 899.9 1209.4 900.5z"></path><path fill="#c1bfac" d="M1213.2 886.1c.2-.2 2.4 1.2 4.7 5 .5 1 1 2.1 1.2 3.5.2 1.4-.4 3.2-1.5 4.3-1.1 1.2-2.7 2.1-4.3 2.4-.8.2-1.7.2-2.5.2-.4 0-.1 0-.2 0l0 0 .1.4c.1.2.1.5.2.7.1.5.1 1 .1 1.5 0 1-.2 2-.6 2.8-.2.4-.5.9-.9 1.3-.4.5-1 .6-1.4.8-.5.1-1 .2-1.4.2l-1.3-.1c-3.2-.5-5.6-1.7-7.7-2.7-4-2.1-6.2-3.9-6-4.2.2-.3 2.7.9 6.7 2.6 2 .8 4.5 1.8 7.2 2.1l1 0c.3-.1.6-.1.8-.2.1-.2.5-.1.5-.3 0-.1.1-.1.2-.2.1-.1.1-.3.2-.4.3-.6.4-1.2.4-1.9 0-.3 0-.7-.1-1 0-.2-.1-.3-.1-.5-.1-.1-.1-.3-.3-.8-.4-1-1.4-2.4-2.2-3.6 1.7.4 3.9.9 5 .9.7 0 1.4 0 2-.1 1.3-.2 2.4-.8 3.2-1.6 1.7-1.6 1.2-3.9.4-5.6C1214.7 888.3 1212.9 886.4 1213.2 886.1zM1259.8 892.9c.3.1.1 2.4-.8 6-.9 3.6-2.9 8.5-6.3 13.2-3.4 4.7-7.3 8.2-10.5 10.2-3.2 2-5.5 2.6-5.6 2.3-.1-.3 1.8-1.4 4.6-3.7 2.8-2.2 6.4-5.8 9.5-10.2C1257 901.7 1258.9 892.7 1259.8 892.9z"></path><path fill="#dbd8c7" d="M1214.8,885.7c0.3-4.4,5.7-29.8,8.2-31c2.5-1.1,19.1,1.1,23.2,2.8c4.1,1.7,15.3,14.6,12.6,27.1
							c0,0-11.4,10.6-19.3,1.9c-7.8-8.7-8.9-15.8-8.9-15.8s-6.8,18.6-8.7,18.6C1220,889.3,1214.8,885.7,1214.8,885.7z"></path><path fill="#c1bfac" d="M1251.4,890.1c0,0.1-0.7,0.6-2.2,0.8c-1.5,0.2-4,0.3-6.6-1c-1.3-0.7-2.6-1.7-3.8-3
								c-1.1-1.3-2.2-2.7-3.3-4.2c-1.1-1.6-2.2-3.3-3.2-5.2c-0.5-0.9-1-1.9-1.4-3c-0.2-0.4-0.1-0.2-0.1-0.3l0,0l0-0.1
								c0,0,0,0.1,0,0.1c-0.4,1-0.8,2-1.1,3c-0.9,2.2-1.8,4.5-2.9,6.9c-0.5,1.1-1,2.1-1.5,3.2c-0.3,0.5-0.6,1-0.9,1.6
								c-0.2,0.3-0.3,0.5-0.7,0.9c-0.4,0.4-0.9,0.6-1.4,0.7c-0.8-0.1-1.2-0.2-1.5-0.3c-0.4-0.1-0.7-0.3-1-0.4
								c-0.7-0.3-1.3-0.6-1.9-0.9c-0.6-0.3-1.2-0.7-1.8-1c-0.7-0.5-1.5-0.9-2.2-1.4c-0.2-0.1-0.2-0.2-0.1-0.3l0.1-0.4l0.1-0.8
								c0.1-0.6,0.1-0.7,0.2-1.1c0.1-0.6,0.3-1.2,0.4-1.8c0.3-1.2,0.6-2.4,0.8-3.5c1.1-4.5,2.3-8.5,3.3-11.8
								c2-6.6,3.5-10.6,3.9-10.5c0.3,0.1-0.7,4.1-2.3,10.9c-0.8,3.4-1.7,7.5-2.7,11.9c-0.2,1.1-0.5,2.3-0.7,3.5
								c-0.1,0.6-0.2,1.2-0.3,1.8l-0.1,0.8c0,0.1,0,0.2,0,0.2c0.9,0.5,4.6,2.7,5.8,2.8l0,0c0,0,0.2-0.3,0.3-0.5
								c0.3-0.4,0.5-0.9,0.8-1.4c0.5-1,1-2,1.5-3c1-2.3,2-4.5,2.9-6.7c0.5-1.2,1-2.4,1.4-3.6c0.8-2.1,1.6-4.2,2.4-6.3
								c0.3,1.4,0.6,2.8,1,4.2c0.3,1,0.8,2.4,1,2.9c0.4,1,0.8,1.9,1.3,2.8c0.9,1.8,1.9,3.5,2.9,5c1,1.6,2.1,2.9,3,4.2
								c1,1.2,2,2.2,3.1,2.8c2.2,1.3,4.4,1.5,5.9,1.5C1250.5,890.2,1251.3,890,1251.4,890.1z"></path><path fill="#1a4675" d="M1276.5,893.8l226.5,111.9c0,0,88.5,133,2.7,152.6c-95.3-46.3-258.4-217.7-258.4-217.7L1276.5,893.8z"></path><path fill="#21254c" d="M1503 1005.7c0 0 .8 57.1 6.5 52.6C1525.4 1046 1506.3 1007.3 1503 1005.7zM1609 982.9l-45.4 152.2c0 0-42.9 34.2-56.1 23.1C1536.9 1114.4 1566 1062.5 1609 982.9z"></path><g><path fill="#dbd8c7" d="M1597.9,2330.2c0,0-4.4-70.6-3.6-89.4c0.4-10,56.3-2.1,61.1,2.2c0.3,16.8-14.8,79.1-20.4,90.8
						C1629.7,2344.7,1602.2,2347.1,1597.9,2330.2z"></path><path fill="#21254c" d="M1489.5,2361.6l-6.7,0.9c0,0-2.7,8.1,0.2,11.9c2.8,3.8,30.2,13.6,84.2,13.9c54,0.2,79-8,78.1-17.6
					C1644.4,2361.1,1511.9,2384.6,1489.5,2361.6z"></path><path fill="#1e3560" d="M1645.3,2370.7c-72.1,21.2-178.7,0.2-160.7-10.7c4-2.4,10.8-4.3,19.1-6.1c29.5-6.4,77.3-10.7,79-25.3
					c2.2-18.7,12.3-21.2,14.6-20.4c0.6,0.2,2.2,0.9,4.3,1.7c6.4,2.3,40.8-5,44.9-0.5C1658.6,2322.3,1653.7,2332,1645.3,2370.7z"></path><path fill="#21254c" d="M1601.7,2309.8c-1.1,4.4-3.2,9.3-5.6,13.3c-6.1,10.1,1.4,16-16.2,33.8c-17.7,17.8-59.6,7.1-71.7,2.7
					c-7.1-2.6-6.3-4.5-4.4-5.7c29.5-6.4,77.3-10.7,79-25.3c2.2-18.7,12.3-21.2,14.6-20.4C1597.9,2308.3,1599.5,2309,1601.7,2309.8z"></path><polygon fill="#1e3560" points="1836.3 1283.8 1561.1 1287.4 1587.8 2280.3 1660.2 2284.5"></polygon><path fill="#21254c" d="M1687.3,1770.6c-0.5,24.8-63.1,32.7-50.7,40.2c12.4,7.5,89,4.2,57.8,21.5c-31.2,17.2-70,5.3-50.9,21.8
				c19,16.5,46,19.6,47.4,27.5c1.3,7.3-30.8,403-30.8,403l176.1-1000.6l-236.3,3.6l79.2,192.2
				C1679.2,1479.7,1687.8,1745.8,1687.3,1770.6z"></path><g><path fill="#dbd8c7" d="M1842.5,2332.1c0,0-17.3-63.3-15-80c1.4-9.9,60.9-10,59.9-3.6c-3.6,22,3.7,78.2-4,87.5
							C1875.8,2345.3,1848.3,2348.6,1842.5,2332.1z"></path><path fill="#21254c" d="M1737.8,2374.6l-6.6,1.5c0,0-2,8.3,1.2,11.8c3.1,3.5,31.3,11,85.1,6.6c53.8-4.4,78-14.7,76.3-24.2
						C1892.2,2360.9,1762.2,2395.7,1737.8,2374.6z"></path><path fill="#1e3560" d="M1893.9,2370.4c-70,27.3-178.1,15.5-161,3.1c3.8-2.7,10.4-5.2,18.5-7.7c28.8-8.9,76.1-17.3,76.6-32
						c0.6-18.8,10.4-22.1,12.8-21.6c0.6,0.1,2.2,0.7,4.4,1.3c6.5,1.8,40.2-5.4,44.7-1.4C1902.9,2324,1898.9,2331.2,1893.9,2370.4z"></path><path fill="#21254c" d="M1845.1,2313.4c-0.7,4.4-2.4,9.5-4.4,13.7c-5.2,10.5,2.8,15.9-13.3,35.1c-16.1,19.2-58.7,12.1-71.2,8.8
						c-7.3-2-6.7-4-4.9-5.3c28.8-8.9,76.1-17.3,76.6-32c0.6-18.8,10.4-22.1,12.8-21.6C1841.3,2312.3,1842.9,2312.8,1845.1,2313.4z"></path><path fill="#1e3560" d="M1932.2,1327.5c3.3-92.5-325-40-325-40l101.3,176.9l113.9,825.4l74.5-6.9
					C1896.9,2282.8,1916.4,1768.3,1932.2,1327.5z"></path></g></g><path fill="#b2bfea" d="M1810.7,826.8c1.1,9,141.2,490.6,116,509.3c-25.2,18.6-182.5,81.2-388.2,30.8c0,0,74.5-499.6,109.3-526.4
			C1682.6,813.6,1810.7,826.8,1810.7,826.8z"></path><path fill="#8eaae4" d="M1926.6,1336c-25.2,18.6-182.5,81.2-388.2,30.8c0,0,36.6-153.9,49.5-231.7c-3.2,175.8,51.3,268.2,243,116.6
			c27-21.3,59.5-23,80.7-38.1C1926.4,1280.3,1934.4,1330.3,1926.6,1336z"></path><path fill="#1a4675" d="M1671.3,827.5c0,0-121,423.8-109.8,576.9c0,0-32.4-5.3-32.7-14.2c-3.7-114.4,60.3-496.4,102.2-550.1
			L1671.3,827.5z"></path><path fill="#1e3560" d="M1561.4,1359.6l0.2,45.9c0,0-26.8,0.1-32.7-13.2l27.7,8L1561.4,1359.6z"></path><polygon fill="#1e3560" points="1671.3 827.5 1613.1 893.1 1620.8 907.3 1599.2 946.9 1584.7 1188.1"></polygon><g><path fill="#21254c" d="M1787,671.2c0,0-10.1,23.9-2.8,35.8c7.3,11.9,17.8,35.8,2.8,36.6c-15,0.8-21.4,9.7-20,25.1
							c1.4,15.4-74.5-11.3-74.5-11.3s-51.2-81-6.3-110.2C1731.1,618.1,1778.1,656.3,1787,671.2z"></path><path fill="#dbd8c7" d="M1639.1,772.1c16.2,22.7,50.1,12.6,50.1,12.6l-10.9,46.9c0,0,12.5,28.3,40.7,23.4
							c28.1-4.8,37.4-36.6,37.4-36.6l-7.4-71.1c0,0,1.4-9.5,9.3-10.1c12.3-1,18.4-21.8,11.7-31.4c-9.4-13.5-20.5-1-20.5-1
							s-28.8-40.4-49.7-48.1c-28.6-10.4-55.3-0.1-55.3-0.1s-6.4,27.6-9.6,56.4c-0.4,4.3-0.9,8.7-1.2,13.1
							C1632.2,745.5,1633,763.7,1639.1,772.1z"></path><path fill="#c1bfac" d="M1671.3 786.9c5-2.6 10.2-4.9 15.1-6.9 11.4-4.6 23-9.8 34.9-13.5-4.1 16-14.4 30.2-18.9 46.1-4.7 16.5-6.1 12.8 6.9 25.3 6 5.8 13.4 9.8 21.4 12.8-3.6 1.9-7.4 3.5-11.8 4.2-28.1 4.8-40.7-23.4-40.7-23.4l10.9-46.9C1689.1 784.7 1681.2 787 1671.3 786.9zM1758.7 707.1c0 0 8.2-.3 9 3.6.8 3.9-2.4 18.4-2.4 18.4s-.7-13.6-2-16.3C1761.9 710.1 1757.6 708.5 1758.7 707.1zM1710 729.2c.1 3.7-4.4 6.9-10.1 7.1-5.7.2-10.4-2.7-10.5-6.4-.1-3.7 4.4-6.9 10.1-7.1C1705.1 722.6 1709.9 725.5 1710 729.2zM1633.5 726.1c1.2.2 2.5.4 3.8.3 5.7-.2 10.2-3.4 10.1-7.2-.2-3.7-4.9-6.6-10.6-6.4-.7 0-1.4.1-2.1.2C1634.3 717.4 1633.8 721.8 1633.5 726.1z"></path><path fill="#21254c" d="M1653.7 689.4c-.2 0-.5-.1-.7-.3-.1-.1-12-6.3-21.5-7.2-1.4-.2-2.4-1.4-2.2-2.7.1-1.4 1.4-2.4 2.8-2.2 10.5 1.1 25 9.9 24.4 11.2C1655.8 689.1 1654.8 689.6 1653.7 689.4zM1645.8 703c-.4 2.8-2.7 4.7-5.3 4.4-2.5-.3-4.3-2.9-3.9-5.6.4-2.8 2.7-4.7 5.3-4.4C1644.4 697.8 1646.1 700.3 1645.8 703z"></path><g><path fill="#21254c" d="M1688.2 690.8c-1-.2-1.8-.9-2-1.9-.3-1.3 16.1-6.2 26.5-4.4 1.3 0 2.3 1.5 2.1 2.9-.2 1.4-1.5 2.3-2.9 2.1-9.4-1.6-22.5 1.4-22.6 1.4C1688.9 690.9 1688.6 690.9 1688.2 690.8zM1692.6 706.1c-.4 2.8 1.4 5.3 3.9 5.6 2.5.3 4.9-1.6 5.3-4.4.4-2.8-1.4-5.3-3.9-5.6C1695.3 701.3 1692.9 703.3 1692.6 706.1z"></path><path fill="#fff" d="M1652,754.6c-0.4,2.8,3.6,5.6,8.9,6.3c5.3,0.7,9.9-1,10.2-3.7c0.4-2.8-3.6-5.6-8.9-6.3
										C1656.9,750.1,1652.4,751.8,1652,754.6z"></path></g><path fill="#21254c" d="M1729 683.4c-1.2 26.7 14.9 35.5 14.9 35.5s3.9-10.9 6-15.2c2.1-4.4 8.2 12.9 14.9-2.7 6.7-15.6 47.1-25.1 12.8-54.4-5-60.7-33.4-60.8-75.9-55.7-52.9-31.5-75.3 15.7-77.8 34.4-2.6 18.6 12.6 40.7 27.5 37.1 14.9-3.6 19.5 19.9 42.2-5.7C1728 665.6 1715.4 691 1729 683.4zM1664 702.7c-3.1 1-13.1 18.5-11.6 23.1 1.4 4.5 15 4.1 13.4 1.7-1.5-2.4-9.4-1.5-8.2-3.9C1658.8 721.2 1665.7 702.2 1664 702.7z"></path><path fill="#175689" d="M1698,838.8l-9.2,16.6l5.5,19.6c0,0-97.7,289.7-100.9,471.9l29.7,59.9l51.3-55.1c0,0,12.2-400.4,40.6-470.5
				c0,0,15.7-19.7,15.4-21.7c-0.2-2-3.6-15.7-3.6-15.7L1698,838.8z"></path><path fill="#e8e8f0" d="M1755.8,805.9c0,0-26.4,28.5-47.3,24c-20.9-4.5-27.6-14-27.6-14s-8.8,11.1-9.9,13.5c-1,2.4,0.8,19.7,8,27.4
				c7.3,7.7,29.2-5.9,29.2-5.9s0.1,7.2,16.8,14.1c36.5,15.1,43.8-44.7,43.8-44.7L1755.8,805.9z"></path></g><path fill="#1a4675" d="M1775,820.4c0,0-82.2,394.2-23.9,601c0,0,149.6-7.8,197.8-56.2c20.5-39.5-124.1-538.5-124.1-538.5
			L1775,820.4z"></path><path fill="#21254c" d="M1731.1,1227.2l201.1,11.6c-6.7-22.5-9.9-54.1-18.2-79.3l-183.7-12.1
			C1729.4,1180.5,1729.4,1195.6,1731.1,1227.2z"></path><path fill="#1e3560" d="M1775,820.4l27.7,88.7l-24.5,8.3l22.8,60.9c0,0-71.2,302.8-67.5,338.2
			C1733.6,1316.4,1716.6,1035.9,1775,820.4z"></path><g><path fill="#eebf2f" d="M1521,1001.4c0,0,92.2,13.4,171.6-37.5c-3.6,17.9,40.6,225.8,36.9,227.3c-78.5,33.2-117.6,18.8-117.6,18.8
				L1521,1001.4z"></path><path fill="#dbd8c7" d="M1717.9,1075.6c-17.8-7.7-36.4-7.1-44.2-6.4c-13.2,1.2-57.8,20.1-57.8,20.1s1.5,6.4,3.4,8.4
				c3,3.2,11.2,3.5,19.9,1.2c-5.6,2.6-15.4,8.5-15.4,8.5s3.7,6.9,6,8.2c3.2,1.8,10.4,1.4,15.8-0.2c-3.8,2.3-10.4,5.8-10.4,5.8
				s5,7.3,7.5,8.2c4.9,1.8,13.5-0.5,20.8-2.8c-5.1,2.5-12.7,8.6-12.7,8.6s5.7,5.6,8,6.5c9,3.5,36.7-6.3,36.7-6.3
				c17.1,21.8,21.8,25.8,34.2,26.8c3,0.2,26.3-30.2,14.2-57C1740.2,1096.2,1731.3,1081.4,1717.9,1075.6z"></path><path fill="#c1bfac" d="M1670.5 1088.8c0 .4-1.7.8-4.6 1.7-2.8.9-6.7 2.1-11 3.6-8.5 2.9-15.4 5.5-15.7 4.9-.3-.6 6.3-4.2 14.9-7.2 4.3-1.5 8.4-2.5 11.4-3C1668.6 1088.4 1670.5 1088.5 1670.5 1088.8zM1675.2 1105c.1.6-6.5 2.8-14.5 5.8-8.1 2.9-14.7 5.2-15 4.6-.3-.6 6-3.8 14.2-6.8C1668 1105.5 1675.1 1104.4 1675.2 1105zM1678.2 1121.4c.2.6-3.4 2.6-8.2 4.4-4.8 1.8-8.8 2.8-9 2.2s3.4-2.6 8.2-4.4C1673.9 1121.8 1677.9 1120.8 1678.2 1121.4z"></path></g><g><path fill="#1a4675" d="M1824.9,826.7l39,16.2c0,0,199.6,291.4,162.8,329.3c-65.6,67.6-272.5-4.3-286.9-5.4
				c-14.4-1.1-6-69-4.7-79.6l156.3-11.3c0,0-31.4-46.9-41.4-84.5C1844.5,971.1,1824.9,826.7,1824.9,826.7z"></path><path fill="#1e3560" d="M1849.9,991.5l47.6,76.2c0,0,57.6,41.1,49.8,44.4c-7.8,3.4-54.6-29.8-54.6-29.8l-157.7,5l140.5-13.6
				L1849.9,991.5z"></path></g><path fill="#1e3560" d="M1735.4,1336c0,0,4.3,67.4,15.7,85.3c0,0,94,3.9,175.5-39.9c0,0-113.7,23.6-165.5,27.7
			C1754.1,1391.6,1735.4,1336,1735.4,1336z"></path></g><g><path fill="#d6d3ef" d="M2321.6,1090.3c54.7-34.4,115-56.9,176.9-66.7c-11.9-42.8-23.4-86.3-34.3-130.5
				c-72.7,24-140.5,62.2-199.1,112.8C2283.7,1034.8,2302.6,1062.9,2321.6,1090.3z"></path><path fill="#8eaae4" d="M2321.8,1086.9c17.2-27.6,36.5-56,58.3-84.8c-35.6-3.8-71.7-1.9-107,5.8c36.9-10.7,74.9-15,112.6-13.2
					c22.1-30,47-60.6,75.3-91.3c-25.6,31.3-48,62.1-67.7,91.9c23.4-0.2,90,18.8,99.1,24.3c-33.8-10.9-68.8-16.4-104.1-16.6
					C2363.6,1031.1,2341.6,1059.2,2321.8,1086.9z"></path><path fill="#abd1fa" d="M2492.3,1019.7c0.4,0.1,0.8,0.3,1.2,0.4C2493.4,1020,2493,1019.9,2492.3,1019.7z"></path><path fill="#d6d3ef" d="M2260.7,1054c0,0,37.6,68.8,93.7,72.9c0,0-26.2,11.7-62.5-19.4C2262,1081.9,2260.7,1054,2260.7,1054z"></path><g><path fill="#e8ae2d" fill-rule="evenodd" d="M1230.1,1463.9l-19-116.5c-0.5-7.7-8-13.1-14.9-10.7l-108.3,38.3l0,0c-2.1-6.1-8.5-9.4-14.3-7.4l-35.3,12.3
			c-5.3,1.9-8.1,7.9-6.1,13.6l41,117.7L1230.1,1463.9z" clip-rule="evenodd"></path><path fill="#d6d3ef" d="M1108.3,1406c-45.2-28.5-95.1-47.1-146.3-55.1c9.9-35.4,19.3-71.4,28.4-107.9
					c60.1,19.8,116.2,51.4,164.6,93.3C1139.6,1360.2,1124,1383.4,1108.3,1406z"></path><path fill="#8eaae4" d="M1108.1,1403.3c-14.3-22.8-30.2-46.3-48.2-70.1c29.5-3.2,59.3-1.6,88.4,4.8c-30.5-8.8-61.9-12.4-93.1-10.9
						c-18.3-24.8-38.9-50.1-62.3-75.4c21.2,25.9,39.7,51.3,56,76c-19.4-0.1-74.4,15.6-81.9,20.1c27.9-9,56.9-13.6,86.1-13.7
						C1073.6,1357.2,1091.7,1380.4,1108.1,1403.3z"></path><path fill="#abd1fa" d="M967.1,1347.7c-0.3,0.1-0.7,0.2-1,0.3C966.2,1348,966.6,1347.9,967.1,1347.7z"></path><path fill="#d6d3ef" d="M971.3,1230.8c0,0,64.6-5.8,93.2,30.8c0,0-4-23.4-42.1-34C991.1,1218.9,971.3,1230.8,971.3,1230.8z"></path><path fill="#eebf2f" fill-rule="evenodd" d="M1174.7,1356.6l-139.4,48.5c-9.1,3.2-13.9,13.1-10.7,22.2l32.1,92.2c3.2,9.1,13.1,13.9,22.2,10.7l139.4-48.5
			c9.1-3.2,13.9-13.1,10.7-22.2l-32.1-92.2C1193.7,1358.2,1183.8,1353.4,1174.7,1356.6z" clip-rule="evenodd"></path></g><g><path fill="#e8ae2d" fill-rule="evenodd" d="M2072.6,1029.3l31.6-101.1c2.7-6.4-1.1-13.7-7.7-14.6l-102.2-12.8l0,0c0.7-5.7-3-11-8.5-11.7l-33.2-4.3
			c-5-0.7-9.7,3.1-10.4,8.4l-14.5,110.9L2072.6,1029.3z" clip-rule="evenodd"></path><path fill="#eebf2f" fill-rule="evenodd" d="M2071.3,920.9l-131.3-17.1c-8.6-1.1-16.4,4.9-17.5,13.5l-11.3,86.9c-1.1,8.6,4.9,16.4,13.5,17.5l131.4,17.1
			c8.6,1.1,16.4-4.9,17.5-13.5l11.3-86.9C2085.9,929.9,2079.8,922,2071.3,920.9z" clip-rule="evenodd"></path></g></g></svg>