<svg xmlns="http://www.w3.org/2000/svg" viewBox="0 0 700 500" id="it"><g><path d="M285.09,454.26c116.23-13.67,202.83,47.86,273.48-11.39,79-66.28,95.72-152.69,70.65-239.29-21-72.47-63.81-139-182.32-161.81s-255.24,13.68-335,127.62C48.67,259.71,47.39,363.55,82.27,417.8,123.29,481.61,198.35,464.47,285.09,454.26Z" style="mix-blend-mode:multiply" fill="#ecb47f" opacity=".26"></path><path fill="#1c7c57" d="M261.5 413.7H190.61V118.81H261.5zM536.54 173.7H448v240H376.94v-240H290.05V118.81H536.54z"></path><polygon fill="#db6758" points="177.5 414.01 159.46 414.01 149.43 365.75 186.02 365.75 177.5 414.01"></polygon><path d="M182.92,365.75s-7.23,27.75-12,35.42a34.81,34.81,0,0,1-11.86,11l.39,1.83h18L186,365.75Z" style="mix-blend-mode:multiply" fill="#ec8773" opacity=".26"></path><path fill="#78cc9a" d="M168 259.53c-.8-2.81 2.73-6.21 5.5-8.36q-.12-1.89-.36-3.81C171 231 154 219.87 154 219.87a55.63 55.63 0 00-7.15 10.87c2.13 1.89 4 4.22 3.4 6.33-.6 2.28-3.54 1.87-6.33.88a31.81 31.81 0 00-1.39 13.5c2.11 16.32 10.67 28.63 19.12 27.5 6-.81 10.39-8.27 11.6-18.42C170.8 261.33 168.5 261.49 168 259.53zM199.17 293.37c6-14.8.05-30.17.05-30.17a86.48 86.48 0 00-11.5 5.35 5.09 5.09 0 01-.47 4c-1.57 1.39-2.79 1.2-4.3-.95a29 29 0 00-7.75 9.35c-6.64 13.23-6.67 26.74 0 30.18 4.74 2.46 11.58-.9 17.53-7.84C197.83 297.62 198.73 294.45 199.17 293.37zM127.42 290.63l30.44 41.85a22.7 22.7 0 002.93-21.76C156.1 298 127.42 290.63 127.42 290.63z"></path><polygon fill="#78cc9a" points="161.23 365.79 156.61 325.17 157.43 325.07 162.05 365.7 161.23 365.79"></polygon><rect width="54.67" height=".83" x="147.32" y="338" fill="#78cc9a" transform="rotate(-88.9 174.954 338.455)"></rect><polygon fill="#78cc9a" points="167.31 365.77 161.23 276.95 162.05 276.89 168.14 365.72 167.31 365.77"></polygon><path d="M168.39 275c-.81-9.5-3.48-19.67-6.92-25-3.67-5.72-11.94-7.75-18.41-8.43a30 30 0 00-.57 10.44c2.11 16.31 10.67 28.62 19.12 27.49A10.23 10.23 0 00168.39 275zM193 303.05c5.15-5.63 6.05-8.8 6.49-9.88A37.3 37.3 0 00202 281.65c-5.13 0-13.56 1.19-19.53 6.71A46 46 0 00171 304.19c.71 3.14 2.2 5.51 4.47 6.7C180.18 313.35 187 310 193 303.05z" style="mix-blend-mode:screen" fill="#78cc9a" opacity=".31"></path><path fill="#ff944c" d="M174.88,419.25h26.33a3.47,3.47,0,0,1,3.47,3.47v4.12a3.53,3.53,0,0,1-3.53,3.53H174.88a1.13,1.13,0,0,1-1.13-1.13v-8.86A1.13,1.13,0,0,1,174.88,419.25Z"></path><path fill="#fccdac" d="M173.75,420.73H201a2.33,2.33,0,0,1,2.33,2.33v3.43a2.39,2.39,0,0,1-2.39,2.39H173.75a0,0,0,0,1,0,0v-8.16A0,0,0,0,1,173.75,420.73Z"></path><path fill="#f9c95f" d="M174.11,391.21h25.33a3.88,3.88,0,0,1,3.88,3.88v.07a3.94,3.94,0,0,1-3.94,3.94H174.11a1.53,1.53,0,0,1-1.53-1.53v-4.84a1.53,1.53,0,0,1,1.53-1.53Z"></path><path fill="#fff" d="M173,392.32h26.33a2.78,2.78,0,0,1,2.78,2.78v0a2.84,2.84,0,0,1-2.84,2.84H173a.45.45,0,0,1-.45-.45v-4.77a.45.45,0,0,1,.45-.45Z"></path><path fill="#db6758" d="M177.62,404.83h25.19a7.53,7.53,0,0,1,7.53,7.53v.12a6.77,6.77,0,0,1-6.77,6.77h-26a.36.36,0,0,1-.36-.36v-13.7A.36.36,0,0,1,177.62,404.83Z"></path><path fill="#fccdac" d="M177.26,406.34h25.37a6,6,0,0,1,6,6v.1a5.27,5.27,0,0,1-5.27,5.27H177.26a0,0,0,0,1,0,0V406.34A0,0,0,0,1,177.26,406.34Z"></path><rect width="32.56" height="5.73" x="173.75" y="399.1" fill="#fff"></rect><path fill="#fff" d="M185.14,412h3.49a19.62,19.62,0,0,0-1.74,2.67c-.34.81-.56,1.51-.56,1.51h-3.27S184.1,413.09,185.14,412Z"></path><path fill="#855d42" d="M449.81,228.6l4.87-3.8s-2.89-6.58-3.59-10.29c-1.14-6-.35-10.48-.74-12-.64-2.51-4.64,8.47-3.06,13.23s-4-4.68-4.25-1.68S449.81,228.6,449.81,228.6Z"></path><path fill="#5bbc97" d="M503.48,316.05l47.59,107L562.8,420l-17.59-45.8h0c6.17-7,5.6-13.87,4.06-18.88l-12.83-41.83S516.89,320,503.48,316.05Z"></path><polygon fill="#5bbc97" points="534.08 384.88 513.98 415.78 504.71 411.26 527.82 370.79 534.08 384.88"></polygon><path fill="#874417" d="M556.84 429.61l23.3 1.38c1.53-5.69-19.27-10.53-19.27-10.53l-8.71 2.34 1 3.76A4.1 4.1 0 00556.84 429.61zM503.35 420.4l21 7.29c2.29-3.5-11.34-12.28-11.34-12.28l-8.31-4.15-2.95 4.52A3.1 3.1 0 00503.35 420.4z"></path><path d="M531.92,335.86l13.29,38.29s3.89-5.21,4.41-7.77S531.92,335.86,531.92,335.86Z" style="mix-blend-mode:multiply" fill="#5bbc97" opacity=".28"></path><polygon points="530.5 376.82 534.08 384.88 513.02 415.41 530.5 376.82" style="mix-blend-mode:multiply" fill="#5bbc97" opacity=".28"></polygon><path fill="#db6758" d="M447.16,226.93l8.17-4.74s16.83,17.37,22.93,19.29c7.53,2.36,20.18,3.85,26.72,5.84,7.06,2.15,20.46,8.94,26.27,13.49,8.06,6.31,25.69,27.53,25.49,31.18-.41,7.38-11.86,26.51-11.86,26.51l-6-7.37,5.66-19.27-11.45-11.33s-3,17.84,3.3,32.91c1.18,2.82-30.75,7.18-33,2.61-6.28-12.93-5.56-50.87-5.28-55.55,0,0-19.49-5-27.58-8.65S447.16,226.93,447.16,226.93Z"></path><path fill="#855d42" d="M538.93,311.13s-7.43,5.28-6,8.07,4.41-2.89,4.41-2.89l3.51,11.43,4-9.24Z"></path><path d="M502.16 261.69l-3.72 24.67s-.76-25-.24-25.86zM527.69 275.58l5.45 4.95s-1.2 8.19-.61 14c1.48 14.65 3.91 18.88 3.91 18.88l-2.36 1.13S524.62 295.08 527.69 275.58zM512.4 250.2s3.77 8.68 10.53 10.3a20.57 20.57 0 008.32.31S517.76 250.71 512.4 250.2z" style="mix-blend-mode:multiply" fill="#db6758" opacity=".3"></path><path fill="#855d42" d="M525.88,224.71s-3.21.79-5.09,5c-1.11,2.5-6.07,3.55-7.81,4.74a.87.87,0,0,0,.32,1.55l2.68.68s-3.71,6.3-.76,9c1.81,1.65,2.7,1.4,2.7,1.4L515,251.65s6,8.37,8.29,4.1,7.73-9.42,9.82-16S538,222.77,525.88,224.71Z"></path><path fill="#2d2d2d" d="M527.69,249.4s-3.93-2.23-3.91-3.15,3.21-7.12,3.91-8.49-1.62-2.53-2-2.53.1,2.53-2,1.84,2.42-4.13,2-5.74-3.88-4.53-2-6.86,16-.72,14,9.84A22.69,22.69,0,0,1,527.69,249.4Z"></path><path fill="#855d42" d="M442.61,81l5.53,4.29,6-6.54S457,84.39,460,84.2s4.91-7,4.91-7l2.34,1.13a.37.37,0,0,0,.52-.44c-.48-1.49-1.24-4.57.16-6,1.89-1.89,3.91-5.07-1.89-9.32C458.23,56.89,442.61,81,442.61,81Z"></path><path fill="#7a563d" d="M460.88,91.78s-4.31-7.61-3.15-9.32c1.38-2,2.07-.14,2.66,1.33s2.78-6.81,5.37-3.73c1.57,1.87,1.58,9.68,1.58,9.68Z"></path><path fill="#2d2d2d" d="M463.7,70.08c.56-1.31,1.59-3.17,3.09-3.17s2.44,1.32,4.34,0S469.86,56.14,459.93,55c-6.75-.77-13.55,6.73-11.11,17.62l.12,0A9.14,9.14,0,0,0,458.06,70l0,0s2.14-4.53,2.84-2.27C462,71.25,463.13,71.39,463.7,70.08Z"></path><path fill="#2d2d2d" d="M452.61,60.05s-2.31-5.07-6.8-3.43c-3.2,1.18-1.8,3.92-1.8,8.17,0,5.6-4.15,8.71-10.24,4.95,0,0,5.9-.83,4.44-4.95s-4.44-14.6,3.07-17.44c12.28-4.63,13,11.52,13,11.52Z"></path><polygon fill="#59c1c1" points="312.08 118.88 316.87 107.76 372.07 105.36 374.45 118.88 312.08 118.88"></polygon><path fill="#2d2d2d" d="M304.11 84.72l17.18-7.07a2 2 0 012.17.42l4.21 4.14-11.45 5.21-12-1.37A.7.7 0 01304.11 84.72zM292.91 118.85l15.74-.85 7-7.51-2.23-1.7a2.76 2.76 0 00-2.92-.27l-17.94 9A.7.7 0 00292.91 118.85z"></path><polygon fill="#855d42" points="316.22 87.42 319.25 89.33 327.4 81.95 316.22 87.42"></polygon><path fill="#69d4d6" d="M417.42,118.59s-39.29,3.73-52.63.29-46.65-28.56-46.65-28.56L327.41,82l41.35,21.83L404.47,98s9.66,20.36,12.95,20.62Z"></path><path fill="#f97f2d" d="M401,98.55l3.52-.58s1.49,10.38,5.06,14.48,5.91,6.43,5.91,6.43l-8.45.64S396.92,112.66,401,98.55Z"></path><path fill="#f97f2d" d="M404.18,98.51c.64-4.58,10.94,2.15,38.87-20.62,4.56-3.72,10.5,6,10.5,6l8.78,17.3-2.63-9.26,8.55-3,1.8,5.11c3.47,1.64,1.76,20.17-1.38,23.06-8.2,7.54-20.28-15.61-20.28-15.61s-3.51,6.55-5.34,8.15c-4,3.49-19.24,6.06-25.63,9C411.94,121.07,401,121.11,404.18,98.51Z"></path><path fill="#f97f2d" d="M451.76,98l-3.37,3.51s8,13.9,14,16.52A66,66,0,0,1,451.76,98Z"></path><polygon fill="#855d42" points="308.65 118 315.69 110.49 312.45 118.04 308.65 118"></polygon><path fill="#f97f2d" d="M459.7,91.88l3.74-1.29s3.37,4.26,5,3.85S463,96.28,463,96.28l1.23,8.11-2.25-4.64Z"></path><polygon fill="#2d2d2d" points="508.21 91.23 543.19 91.22 533.56 119.43 475.13 119.43 475.13 117.66 499.51 117.66 508.21 91.23"></polygon><path fill="#fff" d="M523.68,105.33a2.71,2.71,0,0,0-1.49-3.46,2.65,2.65,0,0,0-3.05,2.16,2.71,2.71,0,0,0,1.5,3.46A2.64,2.64,0,0,0,523.68,105.33Z" opacity=".5"></path><path fill="#f39e7a" d="M299 355.87v-7.13s-8-18.16-.11-18.48c4.43-.18 7.53 4 10.66 7.38 2.43 2.6 3.41 3.55 3.41 3.55l-2.36.71s2.42 4.78 2 7c-.73 3.82-5.8 2.09-5.8 2.09l.47 5.31zM277.89 411.86s7 8.67 5.05 7.57a63.72 63.72 0 00-8.2-3.78s-9.32 3.54-17.05 2.51c-1.4-.18 11.37-6.3 11.37-6.3z"></path><polygon fill="#fff" points="345.53 332.65 356.8 327.27 362.31 344.64 354.99 348.36 345.53 332.65"></polygon><path fill="#f39e7a" d="M347.92,349.41s-1.06-11.57,1.26-13.46a9.47,9.47,0,0,1,3.49-1.7.67.67,0,0,1,.66,1.11c-1.3,1.35-2.85,3.12-2.06,3.2,1.27.12,7.58-5.55,9.68-4.71s1.48,4.62,0,6.52-6.09,9-6.09,9Z"></path><rect width="1.75" height="15.91" x="349.61" y="321.69" fill="#2c5643" transform="rotate(65.35 350.483 329.655)"></rect><path fill="#e47122" d="M454.6,417s-37.13-2.89-49.53-3c-15.59-.1-62.28,3-62.28,3V399s45.73-4.14,61-3.41c12.84.61,50.83,7.75,50.83,7.75Z"></path><path fill="#2d2d2d" d="M422.16,417.07h24c.77-5.37-16.33-6.07-16.33-6.07l-11.78,1.44,1.53,3.06A2.84,2.84,0,0,0,422.16,417.07Z"></path><path fill="#f97f2d" d="M324.57,411.86s7.95,7.63,18.72,6.1c7.07-1,40.52-25.3,40.52-25.3l31.89,18.87,9.76-6.72s-33.87-28.91-41.27-28.93c-8.45,0-42.67,18.08-42.67,18.08S336.53,407.63,324.57,411.86Z"></path><polygon fill="#f39e7a" points="415.7 411.53 418.09 412.44 429.87 411 422.78 406.65 415.7 411.53"></polygon><path d="M342.79,393.3s-2.12,8.79-5.28,13a24.92,24.92,0,0,1-10,7.79l-3-2.25s5.78-3.16,8.6-6.74,9.16-12.35,9.16-12.35Z" style="mix-blend-mode:multiply" fill="#f97f2d" opacity=".3"></path><path fill="#2d2d2d" d="M269.06,411.79h8.83L302,376.5s16.23,31.54,22.53,35.29,18.22-18.58,18.22-18.58L328.33,377s18.26,2.64,20.81-.83c2.79-3.78,8.21-28.23,8.21-28.23h-9.67s-4.31,13.76-7.54,17.37c-2.09,2.34-17.94-6.95-23.94-9.21-3.94-1.49-14.75,0-19.17,3.79S269.06,411.79,269.06,411.79Z"></path><path fill="#f9c95f" d="M303.2,329.55s5.05,2.75,3.79,5-5.62.3-5,3,3.94,4.2,2.57,5.66,2.75,18.15,0,23.16c-3.7,6.75-18,7.09-18,0s8-14.68,6.39-19.06S287.13,325.75,303.2,329.55Z"></path><polygon points="328.33 377.11 318.31 374.66 335.84 385.51 328.33 377.11" style="mix-blend-mode:multiply" fill="#2e483c" opacity=".33"></polygon><polygon fill="#f39e7a" points="454.6 404.18 460.7 404.18 459.38 414.91 454.6 414.91 454.6 404.18"></polygon><path fill="#2d2d2d" d="M463.71,413.17l7.12-22.57c-4.89-2.34-10.7,13.76-10.7,13.76l-2,10.74,2.8.06A2.84,2.84,0,0,0,463.71,413.17Z"></path><polygon fill="#2d2d2d" points="217.98 88.58 205.96 60.96 187.49 59.53 198.61 86.25 217.98 88.58"></polygon><path fill="#fff" d="M221.26,146.6s-18.78,14.71-19,14.5c-2.76-2.88-.17-8.26,3.15-10.77l11.78-8.93Z"></path><path fill="#f39e7a" d="M242.45,51.9l-6.09-17.12s-8-12.91-16.22-5c-4.2,4.07,1.52,9.13,1.46,11s-.43,6.72-.43,6.72l3-1.6s1.74,5.77,4.09,5.73,5.22-2.08,5.22-2.08l.38,6.06Z"></path><path fill="#1a1a1a" d="M238.62,39.73s3.67,2.75-.49,3.18-5.19-6.43-5.39-7.34-.69-3.16-2.2-1.41S230.43,38,228.07,38s-2.69-3.67-3.79-4.37-3.17,4.94-5.47,3.08-3.42-5.78-1.66-6.49c6.3-2.56,8.39-12,15.23-10.42C240.84,21.75,239.61,30.5,238.62,39.73Z"></path><path fill="#e47122" d="M239.1,95s-33-1.73-39.87-.66-7.26,4.86-5.52,10.47c3.17,10.19,13.11,44.91,13.11,44.91l14.44-3.16s-11.88-40.39-9.8-41.7S239.17,103,239.17,103Z"></path><path fill="#fff" d="M184.35,155.13s-19,14.4-19.1,14.26c-2.61-3.66.68-7.9,4.22-10.09L182,151.51Z"></path><path fill="#f97f2d" d="M259,97.5s.3,17.63-8,19.62c-14.38,3.45-46.37,1-46.37,1l-20.29,37.05-11.84,2.11s19.39-52,26.52-54S237.09,101,237.09,101,252.68,105.27,259,97.5Z"></path><path fill="#f39e7a" d="M222.59,83.32s-5.07-4.42-6.56-5.43-4.69-6-5.31-5,3,6,3,6-7-3.32-10.85-3.38-4,.88-4,.88,7.23,4.17,8.53,4.33,12.76,8.52,12.76,8.52Z"></path><path fill="#69d4d6" d="M242.11,50.32l-8.57,4s-.6,22,.13,28.81c.46,4.27-13.37-2.76-13.37-2.76L216,88.79S234.87,99.52,237.13,99c.45-.1-.18,2.44-.18,2.44s18.62,4,22.49-2.06S261.91,65.22,242.11,50.32Z"></path><path fill="#59c1c1" d="M247,71.48s4,20.42,1.81,25.62-11.84,2.11-11.84,2.11l0,2.35s14.11,1.52,15-5.15C254.72,74.52,247,71.48,247,71.48Z"></path><path d="M75 176c13.36 1.21 54-55 78-72s16-43-15-33S42 173 75 176zM636 157c10.77 0 7-70-17-70S618 157 636 157zM632 388c11 0-8 32.5-15 33C603 422 616.77 388 632 388z" style="mix-blend-mode:multiply" fill="#ecb47f" opacity=".26"></path></g></svg>